<svg width="126" height="38" viewBox="0 0 126 38" fill="none" xmlns="http://www.w3.org/2000/svg">
<rect x="3.66895" y="4.20703" width="28.662" height="26.8308" fill="#252829"/>
<path fill-rule="evenodd" clip-rule="evenodd" d="M7.36248 0C3.2963 0 0 3.29629 0 7.36246V30.6373C0 34.7035 3.2963 37.9998 7.36248 37.9998H30.6375C34.7035 37.9998 38 34.7035 38 30.6373V7.36246C38 3.29629 34.7035 0 30.6375 0H7.36248ZM16.3694 10.45C16.3694 8.87595 17.6453 7.59996 19.2194 7.59996H27.55C29.1242 7.59996 30.4 8.87595 30.4 10.45V18.7807C30.4 20.3547 29.1242 21.6307 27.55 21.6307H19.5983C17.8704 21.6307 16.459 22.9748 16.3692 24.6599V28.5C16.3692 29.5493 15.5185 30.4 14.4692 30.4H9.49997C8.45063 30.4 7.59998 29.5493 7.59998 28.5V23.5307C7.59998 22.4814 8.45063 21.6307 9.49997 21.6307L13.1404 21.6302C14.9232 21.6302 16.3694 20.2024 16.3694 18.441V10.45Z" fill="#66E8FA"/>
<text x="49" y="25" fill="white" font-family="Arial" font-size="23">cegos</text>
</svg>
