<svg width="20" height="21" viewBox="0 0 20 21" fill="none" xmlns="http://www.w3.org/2000/svg">
<path fill-rule="evenodd" clip-rule="evenodd" d="M1.27344 13.837C1.27344 13.5057 1.54207 13.237 1.87344 13.237H18.1234C18.4548 13.237 18.7234 13.5057 18.7234 13.837C18.7234 14.1684 18.4548 14.437 18.1234 14.437H1.87344C1.54207 14.437 1.27344 14.1684 1.27344 13.837Z" fill="#252829"/>
<path fill-rule="evenodd" clip-rule="evenodd" d="M4.23672 7.23705C4.22502 7.23707 4.21637 7.24098 4.21204 7.24423C4.21128 7.2448 4.21073 7.24528 4.21035 7.24564L2.47344 13.9139V16.2297C2.47738 16.2327 2.4859 16.237 2.49844 16.237H17.4984C17.511 16.237 17.5195 16.2327 17.5234 16.2297V13.9139L15.7865 7.24564C15.7861 7.24528 15.7856 7.2448 15.7848 7.24423C15.7805 7.24098 15.7719 7.23707 15.7602 7.23705M15.7858 7.24285C15.7858 7.24287 15.7858 7.24282 15.7858 7.24285ZM15.7858 7.24285C15.7858 7.24287 15.7858 7.24282 15.7858 7.24285ZM4.2111 7.24279C4.21111 7.24274 4.21108 7.24283 4.2111 7.24279ZM15.7602 7.23705H4.23672ZM3.49223 6.28409C3.70758 6.12264 3.96963 6.03709 4.23663 6.03705H15.7602C16.0272 6.03709 16.2893 6.12264 16.5046 6.28409C16.7204 6.44583 16.8781 6.67576 16.947 6.94031C16.947 6.94033 16.947 6.94029 16.947 6.94031L18.7041 13.6858C18.7169 13.7352 18.7234 13.786 18.7234 13.837V16.237C18.7234 16.5634 18.5882 16.8712 18.3559 17.0941C18.1245 17.3163 17.8156 17.437 17.4984 17.437H2.49844C2.18127 17.437 1.87241 17.3163 1.64098 17.0941C1.40871 16.8712 1.27344 16.5634 1.27344 16.237V13.837C1.27344 13.786 1.27995 13.7352 1.29281 13.6858L3.04983 6.94036C3.04983 6.94035 3.04982 6.94038 3.04983 6.94036C3.11872 6.67581 3.27648 6.44583 3.49223 6.28409Z" fill="#252829"/>
<path fill-rule="evenodd" clip-rule="evenodd" d="M5.02344 9.03704C5.02344 8.70567 5.29207 8.43704 5.62344 8.43704H6.87344C7.20481 8.43704 7.47344 8.70567 7.47344 9.03704C7.47344 9.36841 7.20481 9.63704 6.87344 9.63704H5.62344C5.29207 9.63704 5.02344 9.36841 5.02344 9.03704Z" fill="#252829"/>
<path fill-rule="evenodd" clip-rule="evenodd" d="M8.77344 9.03704C8.77344 8.70567 9.04207 8.43704 9.37344 8.43704H10.6234C10.9548 8.43704 11.2234 8.70567 11.2234 9.03704C11.2234 9.36841 10.9548 9.63704 10.6234 9.63704H9.37344C9.04207 9.63704 8.77344 9.36841 8.77344 9.03704Z" fill="#252829"/>
<path fill-rule="evenodd" clip-rule="evenodd" d="M12.5234 9.03704C12.5234 8.70567 12.7921 8.43704 13.1234 8.43704H14.3734C14.7048 8.43704 14.9734 8.70567 14.9734 9.03704C14.9734 9.36841 14.7048 9.63704 14.3734 9.63704H13.1234C12.7921 9.63704 12.5234 9.36841 12.5234 9.03704Z" fill="#252829"/>
<path fill-rule="evenodd" clip-rule="evenodd" d="M5.02344 11.437C5.02344 11.1057 5.29207 10.837 5.62344 10.837H6.87344C7.20481 10.837 7.47344 11.1057 7.47344 11.437C7.47344 11.7684 7.20481 12.037 6.87344 12.037H5.62344C5.29207 12.037 5.02344 11.7684 5.02344 11.437Z" fill="#252829"/>
<path fill-rule="evenodd" clip-rule="evenodd" d="M8.77344 11.437C8.77344 11.1057 9.04207 10.837 9.37344 10.837H10.6234C10.9548 10.837 11.2234 11.1057 11.2234 11.437C11.2234 11.7684 10.9548 12.037 10.6234 12.037H9.37344C9.04207 12.037 8.77344 11.7684 8.77344 11.437Z" fill="#252829"/>
<path fill-rule="evenodd" clip-rule="evenodd" d="M12.5234 11.437C12.5234 11.1057 12.7921 10.837 13.1234 10.837H14.3734C14.7048 10.837 14.9734 11.1057 14.9734 11.437C14.9734 11.7684 14.7048 12.037 14.3734 12.037H13.1234C12.7921 12.037 12.5234 11.7684 12.5234 11.437Z" fill="#252829"/>
<path fill-rule="evenodd" clip-rule="evenodd" d="M6.22344 4.84442V6.63705C6.22344 6.96843 5.95481 7.23705 5.62344 7.23705C5.29207 7.23705 5.02344 6.96843 5.02344 6.63705V4.83705C5.02344 4.51071 5.15871 4.20294 5.39098 3.97996C5.62241 3.75778 5.93127 3.63705 6.24844 3.63705H9.37344C9.6906 3.63705 9.99946 3.75778 10.2309 3.97996C10.4632 4.20294 10.5984 4.51071 10.5984 4.83705V6.63705C10.5984 6.96843 10.3298 7.23705 9.99844 7.23705C9.66707 7.23705 9.39844 6.96843 9.39844 6.63705V4.84442C9.39449 4.84141 9.38598 4.83705 9.37344 4.83705H6.24844C6.2359 4.83705 6.22738 4.84141 6.22344 4.84442Z" fill="#252829"/>
</svg>
