<svg width="20" height="21" viewBox="0 0 20 21" fill="none" xmlns="http://www.w3.org/2000/svg">
<path fill-rule="evenodd" clip-rule="evenodd" d="M1.20487 13.5833C1.345 13.283 1.70203 13.1532 2.00231 13.2933L8.98366 16.5513C9.62697 16.8515 10.3702 16.8515 11.0135 16.5513L17.9949 13.2933C18.2951 13.1532 18.6522 13.283 18.7923 13.5833C18.9324 13.8836 18.8026 14.2406 18.5023 14.3808L11.521 17.6387C10.556 18.089 9.44117 18.089 8.47619 17.6387L1.49485 14.3808C1.19457 14.2406 1.06474 13.8836 1.20487 13.5833Z" fill="#252829"/>
<path fill-rule="evenodd" clip-rule="evenodd" d="M1.20487 10.2833C1.345 9.98303 1.70203 9.85321 2.00231 9.99334L8.98366 13.2513C9.62697 13.5515 10.3702 13.5515 11.0135 13.2513L17.9949 9.99334C18.2951 9.85321 18.6522 9.98303 18.7923 10.2833C18.9324 10.5836 18.8026 10.9406 18.5023 11.0808L11.521 14.3387C10.556 14.789 9.44117 14.789 8.47619 14.3387L1.49485 11.0808C1.19457 10.9406 1.06474 10.5836 1.20487 10.2833Z" fill="#252829"/>
<path fill-rule="evenodd" clip-rule="evenodd" d="M8.47655 3.43538C9.44152 2.98506 10.5563 2.98506 11.5213 3.43538L18.1143 6.51211C18.7299 6.79938 18.7299 7.67472 18.1143 7.962L11.5213 11.0387C10.5563 11.489 9.44152 11.489 8.47655 11.0387L1.88357 7.962C1.26798 7.67472 1.26798 6.79938 1.88357 6.51211L8.47655 3.43538ZM11.0139 4.5228C10.3705 4.22259 9.62732 4.22259 8.98401 4.5228L3.16776 7.23705L8.98401 9.9513C9.62732 10.2515 10.3705 10.2515 11.0139 9.9513L16.8301 7.23705L11.0139 4.5228Z" fill="#252829"/>
</svg>
