<svg width="20" height="20" viewBox="0 0 20 20" fill="none" xmlns="http://www.w3.org/2000/svg">
<path fill-rule="evenodd" clip-rule="evenodd" d="M4.28969 7.05126C4.97393 8.51112 6.25846 10.2582 7.99441 11.9247C9.73036 13.5912 11.5502 14.8244 13.0709 15.4812C13.8334 15.8106 14.49 15.9817 15.0051 16.0086C15.5206 16.0355 15.8226 15.9172 15.993 15.7537C16.1633 15.5902 16.2865 15.3002 16.2585 14.8053C16.2305 14.3108 16.0523 13.6805 15.7092 12.9485C15.025 11.4886 13.7404 9.74157 12.0045 8.07506C10.2685 6.40854 8.44864 5.17539 6.92796 4.51852C6.16551 4.18917 5.50892 4.01805 4.99377 3.99117C4.47824 3.96426 4.17624 4.08254 4.00589 4.24607C3.83554 4.40961 3.71234 4.69953 3.74036 5.19444C3.76837 5.68898 3.94662 6.31931 4.28969 7.05126ZM2.51793 5.25823C2.47889 4.56879 2.63738 3.89777 3.14022 3.41503C3.64307 2.9323 4.34205 2.78016 5.06022 2.81763C5.77879 2.85513 6.58864 3.08318 7.4303 3.44675C9.11784 4.17569 11.0569 5.5033 12.8701 7.24402C14.6834 8.98473 16.0663 10.8462 16.8256 12.4663C17.2043 13.2743 17.4419 14.0517 17.481 14.7415C17.52 15.431 17.3615 16.102 16.8587 16.5847C16.3558 17.0675 15.6568 17.2196 14.9387 17.1821C14.2201 17.1446 13.4102 16.9166 12.5686 16.553C10.881 15.8241 8.94199 14.4965 7.12875 12.7557C5.31551 11.015 3.93258 9.15354 3.17326 7.53351C2.79455 6.72551 2.55699 5.94805 2.51793 5.25823Z" fill="#252829"/>
<path fill-rule="evenodd" clip-rule="evenodd" d="M3.74036 14.8056C3.71234 15.3005 3.83554 15.5904 4.00589 15.7539C4.17624 15.9175 4.47824 16.0357 4.99377 16.0088C5.50892 15.982 6.16551 15.8108 6.92796 15.4815C8.44864 14.8246 10.2685 13.5915 12.0045 11.9249C13.7404 10.2584 15.025 8.51135 15.7092 7.05149C16.0523 6.31954 16.2305 5.68922 16.2585 5.19468C16.2865 4.69976 16.1633 4.40984 15.993 4.24631C15.8226 4.08277 15.5206 3.9645 15.0051 3.9914C14.49 4.01828 13.8334 4.1894 13.0709 4.51875C11.5502 5.17562 9.73036 6.40878 7.99441 8.07529C6.25846 9.7418 4.97393 11.4889 4.28969 12.9487C3.94662 13.6807 3.76837 14.311 3.74036 14.8056ZM3.17326 12.4665C3.93258 10.8465 5.31551 8.98497 7.12875 7.24425C8.94199 5.50354 10.881 4.17593 12.5686 3.44698C13.4102 3.08342 14.2201 2.85537 14.9387 2.81787C15.6568 2.78039 16.3558 2.93253 16.8587 3.41527C17.3615 3.898 17.52 4.56902 17.481 5.25847C17.4419 5.94829 17.2043 6.72575 16.8256 7.53374C16.0663 9.15378 14.6834 11.0153 12.8701 12.756C11.0569 14.4967 9.11784 15.8243 7.4303 16.5533C6.58864 16.9168 5.77879 17.1449 5.06022 17.1824C4.34205 17.2198 3.64307 17.0677 3.14022 16.585C2.63738 16.1022 2.47889 15.4312 2.51793 14.7418C2.55699 14.0519 2.79455 13.2745 3.17326 12.4665Z" fill="#252829"/>
<path d="M10 10.9C10.5178 10.9 10.9375 10.4971 10.9375 10C10.9375 9.50295 10.5178 9.10001 10 9.10001C9.48223 9.10001 9.0625 9.50295 9.0625 10C9.0625 10.4971 9.48223 10.9 10 10.9Z" fill="#252829"/>
</svg>
