<svg width="20" height="20" viewBox="0 0 20 20" fill="none" xmlns="http://www.w3.org/2000/svg">
<path fill-rule="evenodd" clip-rule="evenodd" d="M2.18939 5.94604C1.94913 6.19869 1.86833 6.41942 1.86833 6.60241C1.86833 6.78539 1.94913 7.00612 2.18939 7.25878C2.43269 7.51462 2.81391 7.77313 3.33221 8.00366C4.36727 8.46404 5.84048 8.76457 7.50057 8.76457C9.16066 8.76457 10.6339 8.46404 11.6689 8.00366C12.1872 7.77313 12.5685 7.51462 12.8117 7.25878C13.052 7.00612 13.1328 6.78539 13.1328 6.60241C13.1328 6.41942 13.052 6.19869 12.8117 5.94604C12.5685 5.69019 12.1872 5.43168 11.6689 5.20115C10.6339 4.74077 9.16066 4.44025 7.50057 4.44025C5.84048 4.44025 4.36727 4.74077 3.33221 5.20115C2.81391 5.43168 2.43269 5.69019 2.18939 5.94604ZM2.8301 4.07226C4.0571 3.52651 5.70888 3.20473 7.50057 3.20473C9.29226 3.20473 10.944 3.52651 12.171 4.07226C12.7838 4.3448 13.3178 4.68531 13.7071 5.09463C14.0994 5.50715 14.3683 6.01774 14.3683 6.60241C14.3683 7.18708 14.0994 7.69767 13.7071 8.11018C13.3178 8.5195 12.7838 8.86002 12.171 9.13255C10.944 9.67831 9.29226 10.0001 7.50057 10.0001C5.70888 10.0001 4.0571 9.67831 2.8301 9.13255C2.21737 8.86002 1.6833 8.5195 1.29406 8.11018C0.901788 7.69767 0.632812 7.18708 0.632812 6.60241C0.632812 6.01774 0.901788 5.50715 1.29406 5.09463C1.6833 4.68531 2.21737 4.3448 2.8301 4.07226Z" fill="#252829"/>
<path fill-rule="evenodd" clip-rule="evenodd" d="M1.25057 5.98454C1.59175 5.98454 1.86833 6.26112 1.86833 6.6023V9.6911C1.86833 9.87401 1.94912 10.0947 2.18941 10.3474C2.43273 10.6032 2.81398 10.8617 3.3323 11.0923C4.36739 11.5527 5.84061 11.8533 7.50057 11.8533C9.16053 11.8533 10.6338 11.5527 11.6688 11.0923C12.1872 10.8617 12.5684 10.6032 12.8117 10.3474C13.052 10.0947 13.1328 9.87401 13.1328 9.6911V6.6023C13.1328 6.26112 13.4094 5.98454 13.7506 5.98454C14.0917 5.98454 14.3683 6.26112 14.3683 6.6023V9.6911C14.3683 10.2758 14.0993 10.7863 13.707 11.1988C13.3178 11.6081 12.7837 11.9486 12.171 12.2212C10.944 12.767 9.29217 13.0888 7.50057 13.0888C5.70897 13.0888 4.05719 12.767 2.83017 12.2212C2.21744 11.9486 1.68336 11.6081 1.29411 11.1988C0.90183 10.7863 0.632812 10.2758 0.632812 9.6911V6.6023C0.632812 6.26112 0.909393 5.98454 1.25057 5.98454Z" fill="#252829"/>
<path fill-rule="evenodd" clip-rule="evenodd" d="M5.00057 8.5323C5.34175 8.5323 5.61833 8.80888 5.61833 9.15006V12.2389C5.61833 12.58 5.34175 12.8566 5.00057 12.8566C4.65939 12.8566 4.38281 12.58 4.38281 12.2389V9.15006C4.38281 8.80888 4.65939 8.5323 5.00057 8.5323Z" fill="#252829"/>
<path fill-rule="evenodd" clip-rule="evenodd" d="M13.1371 7.52895C13.1678 7.18915 13.4681 6.9386 13.8079 6.96931C15.2919 7.10346 16.6285 7.4642 17.6149 7.995C18.5656 8.50652 19.3701 9.28311 19.3701 10.3089C19.3701 10.8935 19.101 11.4041 18.7088 11.8166C18.3195 12.2259 17.7854 12.5664 17.1727 12.839C15.9457 13.3847 14.2939 13.7066 12.5023 13.7066C10.9105 13.7066 9.43209 13.4528 8.26456 13.0156C7.94505 12.8959 7.78303 12.5399 7.90268 12.2204C8.02233 11.9009 8.37834 11.7389 8.69785 11.8585C9.70376 12.2352 11.0316 12.471 12.5023 12.471C14.1623 12.471 15.6355 12.1705 16.6706 11.7101C17.1889 11.4795 17.5701 11.221 17.8135 10.9652C18.0538 10.7125 18.1345 10.4918 18.1345 10.3089C18.1345 9.98949 17.8656 9.53288 17.0295 9.08301C16.2293 8.65242 15.0658 8.32358 13.6967 8.19982C13.3569 8.1691 13.1063 7.86874 13.1371 7.52895Z" fill="#252829"/>
<path fill-rule="evenodd" clip-rule="evenodd" d="M18.7506 9.69102C19.0917 9.69102 19.3683 9.96761 19.3683 10.3088V13.3976C19.3683 13.9822 19.0993 14.4928 18.707 14.9053C18.3178 15.3146 17.7837 15.6551 17.171 15.9277C15.944 16.4734 14.2922 16.7953 12.5006 16.7953C10.709 16.7953 9.05719 16.4734 7.83017 15.9277C7.21744 15.6551 6.68336 15.3146 6.29411 14.9053C5.90183 14.4928 5.63281 13.9822 5.63281 13.3976V12.4153C5.63281 12.0742 5.90939 11.7976 6.25057 11.7976C6.59175 11.7976 6.86833 12.0742 6.86833 12.4153V13.3976C6.86833 13.5805 6.94912 13.8012 7.18941 14.0539C7.43273 14.3097 7.81398 14.5682 8.3323 14.7988C9.36739 15.2592 10.8406 15.5597 12.5006 15.5597C14.1605 15.5597 15.6338 15.2592 16.6688 14.7988C17.1872 14.5682 17.5684 14.3097 17.8117 14.0539C18.052 13.8012 18.1328 13.5805 18.1328 13.3976V10.3088C18.1328 9.96761 18.4094 9.69102 18.7506 9.69102Z" fill="#252829"/>
<path fill-rule="evenodd" clip-rule="evenodd" d="M15.0045 12.2395C15.3457 12.2395 15.6222 12.5161 15.6222 12.8573V15.9461C15.6222 16.2873 15.3457 16.5638 15.0045 16.5638C14.6633 16.5638 14.3867 16.2873 14.3867 15.9461V12.8573C14.3867 12.5161 14.6633 12.2395 15.0045 12.2395Z" fill="#252829"/>
<path fill-rule="evenodd" clip-rule="evenodd" d="M10.0006 8.533C10.3418 8.533 10.6183 8.80959 10.6183 9.15076V15.9461C10.6183 16.2873 10.3418 16.5639 10.0006 16.5639C9.65939 16.5639 9.38281 16.2873 9.38281 15.9461V9.15076C9.38281 8.80959 9.65939 8.533 10.0006 8.533Z" fill="#252829"/>
</svg>
