<svg width="101" height="103" viewBox="0 0 101 103" fill="none" xmlns="http://www.w3.org/2000/svg">
<path d="M7.59746 9.16563C8.2602 9.16563 8.79746 8.62837 8.79746 7.96562C8.79746 7.30288 8.2602 6.76562 7.59746 6.76562C6.93472 6.76562 6.39746 7.30288 6.39746 7.96562C6.39746 8.62837 6.93472 9.16563 7.59746 9.16563Z" fill="#353636"/>
<path d="M21.9959 9.16563C22.6586 9.16563 23.1959 8.62837 23.1959 7.96562C23.1959 7.30288 22.6586 6.76562 21.9959 6.76562C21.3332 6.76562 20.7959 7.30288 20.7959 7.96562C20.7959 8.62837 21.3332 9.16563 21.9959 9.16563Z" fill="#353636"/>
<path d="M36.3943 9.16563C37.0571 9.16563 37.5943 8.62837 37.5943 7.96562C37.5943 7.30288 37.0571 6.76562 36.3943 6.76562C35.7316 6.76562 35.1943 7.30288 35.1943 7.96562C35.1943 8.62837 35.7316 9.16563 36.3943 9.16563Z" fill="#353636"/>
<path d="M50.8006 9.16563C51.4633 9.16563 52.0006 8.62837 52.0006 7.96562C52.0006 7.30288 51.4633 6.76562 50.8006 6.76562C50.1378 6.76562 49.6006 7.30288 49.6006 7.96562C49.6006 8.62837 50.1378 9.16563 50.8006 9.16563Z" fill="#353636"/>
<path d="M65.199 9.16563C65.8618 9.16563 66.399 8.62837 66.399 7.96562C66.399 7.30288 65.8618 6.76562 65.199 6.76562C64.5363 6.76562 63.999 7.30288 63.999 7.96562C63.999 8.62837 64.5363 9.16563 65.199 9.16563Z" fill="#353636"/>
<path d="M79.5975 9.16563C80.2602 9.16563 80.7975 8.62837 80.7975 7.96562C80.7975 7.30288 80.2602 6.76562 79.5975 6.76562C78.9347 6.76562 78.3975 7.30288 78.3975 7.96562C78.3975 8.62837 78.9347 9.16563 79.5975 9.16563Z" fill="#353636"/>
<path d="M93.9959 9.16563C94.6586 9.16563 95.1959 8.62837 95.1959 7.96562C95.1959 7.30288 94.6586 6.76562 93.9959 6.76562C93.3332 6.76562 92.7959 7.30288 92.7959 7.96562C92.7959 8.62837 93.3332 9.16563 93.9959 9.16563Z" fill="#353636"/>
<path d="M7.59746 23.566C8.2602 23.566 8.79746 23.0288 8.79746 22.366C8.79746 21.7033 8.2602 21.166 7.59746 21.166C6.93472 21.166 6.39746 21.7033 6.39746 22.366C6.39746 23.0288 6.93472 23.566 7.59746 23.566Z" fill="#353636"/>
<path d="M21.9959 23.566C22.6586 23.566 23.1959 23.0288 23.1959 22.366C23.1959 21.7033 22.6586 21.166 21.9959 21.166C21.3332 21.166 20.7959 21.7033 20.7959 22.366C20.7959 23.0288 21.3332 23.566 21.9959 23.566Z" fill="#353636"/>
<path d="M36.3943 23.566C37.0571 23.566 37.5943 23.0288 37.5943 22.366C37.5943 21.7033 37.0571 21.166 36.3943 21.166C35.7316 21.166 35.1943 21.7033 35.1943 22.366C35.1943 23.0288 35.7316 23.566 36.3943 23.566Z" fill="#353636"/>
<path d="M50.8006 23.566C51.4633 23.566 52.0006 23.0288 52.0006 22.366C52.0006 21.7033 51.4633 21.166 50.8006 21.166C50.1378 21.166 49.6006 21.7033 49.6006 22.366C49.6006 23.0288 50.1378 23.566 50.8006 23.566Z" fill="#353636"/>
<path d="M65.199 23.566C65.8618 23.566 66.399 23.0288 66.399 22.366C66.399 21.7033 65.8618 21.166 65.199 21.166C64.5363 21.166 63.999 21.7033 63.999 22.366C63.999 23.0288 64.5363 23.566 65.199 23.566Z" fill="#353636"/>
<path d="M79.5975 23.566C80.2602 23.566 80.7975 23.0288 80.7975 22.366C80.7975 21.7033 80.2602 21.166 79.5975 21.166C78.9347 21.166 78.3975 21.7033 78.3975 22.366C78.3975 23.0288 78.9347 23.566 79.5975 23.566Z" fill="#353636"/>
<path d="M93.9959 23.566C94.6586 23.566 95.1959 23.0288 95.1959 22.366C95.1959 21.7033 94.6586 21.166 93.9959 21.166C93.3332 21.166 92.7959 21.7033 92.7959 22.366C92.7959 23.0288 93.3332 23.566 93.9959 23.566Z" fill="#353636"/>
<path d="M7.59746 37.9645C8.2602 37.9645 8.79746 37.4273 8.79746 36.7645C8.79746 36.1018 8.2602 35.5645 7.59746 35.5645C6.93472 35.5645 6.39746 36.1018 6.39746 36.7645C6.39746 37.4273 6.93472 37.9645 7.59746 37.9645Z" fill="#353636"/>
<path d="M21.9959 37.9645C22.6586 37.9645 23.1959 37.4273 23.1959 36.7645C23.1959 36.1018 22.6586 35.5645 21.9959 35.5645C21.3332 35.5645 20.7959 36.1018 20.7959 36.7645C20.7959 37.4273 21.3332 37.9645 21.9959 37.9645Z" fill="#353636"/>
<path d="M36.3943 37.9645C37.0571 37.9645 37.5943 37.4273 37.5943 36.7645C37.5943 36.1018 37.0571 35.5645 36.3943 35.5645C35.7316 35.5645 35.1943 36.1018 35.1943 36.7645C35.1943 37.4273 35.7316 37.9645 36.3943 37.9645Z" fill="#353636"/>
<path d="M50.8006 37.9645C51.4633 37.9645 52.0006 37.4273 52.0006 36.7645C52.0006 36.1018 51.4633 35.5645 50.8006 35.5645C50.1378 35.5645 49.6006 36.1018 49.6006 36.7645C49.6006 37.4273 50.1378 37.9645 50.8006 37.9645Z" fill="#353636"/>
<path d="M65.199 37.9645C65.8618 37.9645 66.399 37.4273 66.399 36.7645C66.399 36.1018 65.8618 35.5645 65.199 35.5645C64.5363 35.5645 63.999 36.1018 63.999 36.7645C63.999 37.4273 64.5363 37.9645 65.199 37.9645Z" fill="#353636"/>
<path d="M79.5975 37.9645C80.2602 37.9645 80.7975 37.4273 80.7975 36.7645C80.7975 36.1018 80.2602 35.5645 79.5975 35.5645C78.9347 35.5645 78.3975 36.1018 78.3975 36.7645C78.3975 37.4273 78.9347 37.9645 79.5975 37.9645Z" fill="#353636"/>
<path d="M93.9959 37.9645C94.6586 37.9645 95.1959 37.4273 95.1959 36.7645C95.1959 36.1018 94.6586 35.5645 93.9959 35.5645C93.3332 35.5645 92.7959 36.1018 92.7959 36.7645C92.7959 37.4273 93.3332 37.9645 93.9959 37.9645Z" fill="#353636"/>
<path d="M7.59746 52.3648C8.2602 52.3648 8.79746 51.8276 8.79746 51.1648C8.79746 50.5021 8.2602 49.9648 7.59746 49.9648C6.93472 49.9648 6.39746 50.5021 6.39746 51.1648C6.39746 51.8276 6.93472 52.3648 7.59746 52.3648Z" fill="#353636"/>
<path d="M21.9959 52.3648C22.6586 52.3648 23.1959 51.8276 23.1959 51.1648C23.1959 50.5021 22.6586 49.9648 21.9959 49.9648C21.3332 49.9648 20.7959 50.5021 20.7959 51.1648C20.7959 51.8276 21.3332 52.3648 21.9959 52.3648Z" fill="#353636"/>
<path d="M36.3943 52.3648C37.0571 52.3648 37.5943 51.8276 37.5943 51.1648C37.5943 50.5021 37.0571 49.9648 36.3943 49.9648C35.7316 49.9648 35.1943 50.5021 35.1943 51.1648C35.1943 51.8276 35.7316 52.3648 36.3943 52.3648Z" fill="#353636"/>
<path d="M50.8006 52.3648C51.4633 52.3648 52.0006 51.8276 52.0006 51.1648C52.0006 50.5021 51.4633 49.9648 50.8006 49.9648C50.1378 49.9648 49.6006 50.5021 49.6006 51.1648C49.6006 51.8276 50.1378 52.3648 50.8006 52.3648Z" fill="#353636"/>
<path d="M65.199 52.3648C65.8618 52.3648 66.399 51.8276 66.399 51.1648C66.399 50.5021 65.8618 49.9648 65.199 49.9648C64.5363 49.9648 63.999 50.5021 63.999 51.1648C63.999 51.8276 64.5363 52.3648 65.199 52.3648Z" fill="#353636"/>
<path d="M79.5975 52.3648C80.2602 52.3648 80.7975 51.8276 80.7975 51.1648C80.7975 50.5021 80.2602 49.9648 79.5975 49.9648C78.9347 49.9648 78.3975 50.5021 78.3975 51.1648C78.3975 51.8276 78.9347 52.3648 79.5975 52.3648Z" fill="#353636"/>
<path d="M93.9959 52.3648C94.6586 52.3648 95.1959 51.8276 95.1959 51.1648C95.1959 50.5021 94.6586 49.9648 93.9959 49.9648C93.3332 49.9648 92.7959 50.5021 92.7959 51.1648C92.7959 51.8276 93.3332 52.3648 93.9959 52.3648Z" fill="#353636"/>
<path d="M7.59746 66.7652C8.2602 66.7652 8.79746 66.228 8.79746 65.5653C8.79746 64.9025 8.2602 64.3652 7.59746 64.3652C6.93472 64.3652 6.39746 64.9025 6.39746 65.5653C6.39746 66.228 6.93472 66.7652 7.59746 66.7652Z" fill="#353636"/>
<path d="M21.9959 66.7652C22.6586 66.7652 23.1959 66.228 23.1959 65.5653C23.1959 64.9025 22.6586 64.3652 21.9959 64.3652C21.3332 64.3652 20.7959 64.9025 20.7959 65.5653C20.7959 66.228 21.3332 66.7652 21.9959 66.7652Z" fill="#353636"/>
<path d="M36.3943 66.7652C37.0571 66.7652 37.5943 66.228 37.5943 65.5653C37.5943 64.9025 37.0571 64.3652 36.3943 64.3652C35.7316 64.3652 35.1943 64.9025 35.1943 65.5653C35.1943 66.228 35.7316 66.7652 36.3943 66.7652Z" fill="#353636"/>
<path d="M50.8006 66.7652C51.4633 66.7652 52.0006 66.228 52.0006 65.5653C52.0006 64.9025 51.4633 64.3652 50.8006 64.3652C50.1378 64.3652 49.6006 64.9025 49.6006 65.5653C49.6006 66.228 50.1378 66.7652 50.8006 66.7652Z" fill="#353636"/>
<path d="M65.199 66.7652C65.8618 66.7652 66.399 66.228 66.399 65.5653C66.399 64.9025 65.8618 64.3652 65.199 64.3652C64.5363 64.3652 63.999 64.9025 63.999 65.5653C63.999 66.228 64.5363 66.7652 65.199 66.7652Z" fill="#353636"/>
<path d="M79.5975 66.7652C80.2602 66.7652 80.7975 66.228 80.7975 65.5653C80.7975 64.9025 80.2602 64.3652 79.5975 64.3652C78.9347 64.3652 78.3975 64.9025 78.3975 65.5653C78.3975 66.228 78.9347 66.7652 79.5975 66.7652Z" fill="#353636"/>
<path d="M93.9959 66.7652C94.6586 66.7652 95.1959 66.228 95.1959 65.5653C95.1959 64.9025 94.6586 64.3652 93.9959 64.3652C93.3332 64.3652 92.7959 64.9025 92.7959 65.5653C92.7959 66.228 93.3332 66.7652 93.9959 66.7652Z" fill="#353636"/>
<path d="M7.59746 81.1656C8.2602 81.1656 8.79746 80.6284 8.79746 79.9656C8.79746 79.3029 8.2602 78.7656 7.59746 78.7656C6.93472 78.7656 6.39746 79.3029 6.39746 79.9656C6.39746 80.6284 6.93472 81.1656 7.59746 81.1656Z" fill="#353636"/>
<path d="M21.9959 81.1656C22.6586 81.1656 23.1959 80.6284 23.1959 79.9656C23.1959 79.3029 22.6586 78.7656 21.9959 78.7656C21.3332 78.7656 20.7959 79.3029 20.7959 79.9656C20.7959 80.6284 21.3332 81.1656 21.9959 81.1656Z" fill="#353636"/>
<path d="M36.3943 81.1656C37.0571 81.1656 37.5943 80.6284 37.5943 79.9656C37.5943 79.3029 37.0571 78.7656 36.3943 78.7656C35.7316 78.7656 35.1943 79.3029 35.1943 79.9656C35.1943 80.6284 35.7316 81.1656 36.3943 81.1656Z" fill="#353636"/>
<path d="M50.8006 81.1656C51.4633 81.1656 52.0006 80.6284 52.0006 79.9656C52.0006 79.3029 51.4633 78.7656 50.8006 78.7656C50.1378 78.7656 49.6006 79.3029 49.6006 79.9656C49.6006 80.6284 50.1378 81.1656 50.8006 81.1656Z" fill="#353636"/>
<path d="M65.199 81.1656C65.8618 81.1656 66.399 80.6284 66.399 79.9656C66.399 79.3029 65.8618 78.7656 65.199 78.7656C64.5363 78.7656 63.999 79.3029 63.999 79.9656C63.999 80.6284 64.5363 81.1656 65.199 81.1656Z" fill="#353636"/>
<path d="M79.5975 81.1656C80.2602 81.1656 80.7975 80.6284 80.7975 79.9656C80.7975 79.3029 80.2602 78.7656 79.5975 78.7656C78.9347 78.7656 78.3975 79.3029 78.3975 79.9656C78.3975 80.6284 78.9347 81.1656 79.5975 81.1656Z" fill="#353636"/>
<path d="M93.9959 81.1656C94.6586 81.1656 95.1959 80.6284 95.1959 79.9656C95.1959 79.3029 94.6586 78.7656 93.9959 78.7656C93.3332 78.7656 92.7959 79.3029 92.7959 79.9656C92.7959 80.6284 93.3332 81.1656 93.9959 81.1656Z" fill="#353636"/>
<path d="M7.59746 95.566C8.2602 95.566 8.79746 95.0288 8.79746 94.366C8.79746 93.7033 8.2602 93.166 7.59746 93.166C6.93472 93.166 6.39746 93.7033 6.39746 94.366C6.39746 95.0288 6.93472 95.566 7.59746 95.566Z" fill="#353636"/>
<path d="M21.9959 95.566C22.6586 95.566 23.1959 95.0288 23.1959 94.366C23.1959 93.7033 22.6586 93.166 21.9959 93.166C21.3332 93.166 20.7959 93.7033 20.7959 94.366C20.7959 95.0288 21.3332 95.566 21.9959 95.566Z" fill="#353636"/>
<path d="M36.3943 95.566C37.0571 95.566 37.5943 95.0288 37.5943 94.366C37.5943 93.7033 37.0571 93.166 36.3943 93.166C35.7316 93.166 35.1943 93.7033 35.1943 94.366C35.1943 95.0288 35.7316 95.566 36.3943 95.566Z" fill="#353636"/>
<path d="M50.8006 95.566C51.4633 95.566 52.0006 95.0288 52.0006 94.366C52.0006 93.7033 51.4633 93.166 50.8006 93.166C50.1378 93.166 49.6006 93.7033 49.6006 94.366C49.6006 95.0288 50.1378 95.566 50.8006 95.566Z" fill="#353636"/>
<path d="M65.199 95.566C65.8618 95.566 66.399 95.0288 66.399 94.366C66.399 93.7033 65.8618 93.166 65.199 93.166C64.5363 93.166 63.999 93.7033 63.999 94.366C63.999 95.0288 64.5363 95.566 65.199 95.566Z" fill="#353636"/>
<path d="M79.5975 95.566C80.2602 95.566 80.7975 95.0288 80.7975 94.366C80.7975 93.7033 80.2602 93.166 79.5975 93.166C78.9347 93.166 78.3975 93.7033 78.3975 94.366C78.3975 95.0288 78.9347 95.566 79.5975 95.566Z" fill="#353636"/>
<path d="M93.9959 95.566C94.6586 95.566 95.1959 95.0288 95.1959 94.366C95.1959 93.7033 94.6586 93.166 93.9959 93.166C93.3332 93.166 92.7959 93.7033 92.7959 94.366C92.7959 95.0288 93.3332 95.566 93.9959 95.566Z" fill="#353636"/>
</svg>
