<svg width="120" height="38" viewBox="0 0 120 38" fill="none" xmlns="http://www.w3.org/2000/svg">
<path d="M50.2278 21.9563C50.2278 22.4928 50.2576 22.9325 50.3172 23.2753C50.3768 23.6181 50.496 23.8863 50.6749 24.0801C50.8686 24.2738 51.1295 24.408 51.4573 24.4825C51.7852 24.557 52.2174 24.5943 52.754 24.5943C53.2756 24.5943 53.8718 24.5943 54.5425 24.5943C55.2131 24.5943 56.0403 24.5794 57.024 24.5496L56.5769 26.7852C56.1596 26.8001 55.787 26.8075 55.4591 26.8075C55.1312 26.8224 54.8107 26.8299 54.4978 26.8299C54.1997 26.8299 53.9016 26.8299 53.6035 26.8299C53.3054 26.8299 52.9775 26.8299 52.6199 26.8299C51.5617 26.8299 50.6898 26.7106 50.0042 26.4722C49.3186 26.2337 48.7746 25.8909 48.3722 25.4438C47.9847 24.9967 47.709 24.4527 47.545 23.8118C47.396 23.156 47.3215 22.4108 47.3215 21.5762V20.3243C47.3215 19.43 47.4035 18.6401 47.5674 17.9545C47.7313 17.269 48.0145 16.6951 48.4169 16.2331C48.8342 15.7562 49.3857 15.3985 50.0713 15.16C50.7718 14.9216 51.6511 14.8023 52.7093 14.8023C53.6929 14.8023 54.5052 14.9141 55.1461 15.1377C55.8019 15.3463 56.3235 15.6444 56.711 16.0319C57.1134 16.4194 57.3966 16.8814 57.5605 17.418C57.7245 17.9396 57.8064 18.5134 57.8064 19.1394V19.5195C57.8064 20.0262 57.7766 20.4435 57.717 20.7714C57.6574 21.0844 57.5531 21.3303 57.404 21.5091C57.2699 21.688 57.0911 21.8072 56.8675 21.8668C56.6439 21.9265 56.3682 21.9563 56.0403 21.9563H50.2278ZM52.6422 16.9932C52.1355 16.9932 51.7256 17.0379 51.4126 17.1274C51.0996 17.2019 50.8537 17.3509 50.6749 17.5745C50.496 17.7831 50.3768 18.0738 50.3172 18.4464C50.2576 18.8041 50.2278 19.2661 50.2278 19.8324H55.0343V19.3183C55.0343 18.886 54.997 18.5209 54.9225 18.2228C54.848 17.9247 54.7213 17.6863 54.5425 17.5074C54.3636 17.3286 54.1177 17.2019 53.8047 17.1274C53.4917 17.0379 53.1042 16.9932 52.6422 16.9932ZM65.9173 15.16L65.4702 17.5521H62.2956V26.7852H59.3894V15.5177C59.3894 14.5192 59.4862 13.6771 59.68 12.9915C59.8737 12.3059 60.1867 11.7545 60.6189 11.3372C61.0661 10.9049 61.6399 10.5994 62.3403 10.4206C63.0557 10.2268 63.9276 10.1299 64.956 10.1299C65.1796 10.1299 65.4106 10.1299 65.649 10.1299C65.9024 10.1299 66.2601 10.1448 66.7221 10.1746L66.275 12.5667C66.1111 12.5518 65.9024 12.5444 65.649 12.5444C65.4106 12.5295 65.187 12.522 64.9784 12.522C64.4865 12.522 64.0692 12.5593 63.7264 12.6338C63.3836 12.6934 63.1079 12.8201 62.8992 13.0139C62.6906 13.2076 62.5415 13.4759 62.4521 13.8187C62.3627 14.1615 62.3105 14.6086 62.2956 15.16H65.9173ZM73.6972 15.16L73.2277 17.5521H69.8967V26.7852H66.9904V15.5177C66.9904 14.5192 67.0873 13.6771 67.281 12.9915C67.4748 12.3059 67.7878 11.7545 68.22 11.3372C68.6671 10.9049 69.2409 10.5994 69.9414 10.4206C70.6568 10.2268 71.5287 10.1299 72.557 10.1299C72.8104 10.1299 73.1159 10.1374 73.4736 10.1523C73.8313 10.1523 74.1965 10.1597 74.5691 10.1746L74.122 12.5667C73.9133 12.5518 73.6823 12.5444 73.4289 12.5444C73.1756 12.5295 72.8924 12.522 72.5794 12.522C72.0876 12.522 71.6702 12.5593 71.3275 12.6338C70.9847 12.6934 70.7089 12.8201 70.5003 13.0139C70.2916 13.2076 70.1426 13.4759 70.0532 13.8187C69.9637 14.1615 69.9116 14.6086 69.8967 15.16H73.6972ZM79.4149 14.8023C80.4135 14.8023 81.263 14.8918 81.9635 15.0706C82.664 15.2495 83.2378 15.555 83.6849 15.9872C84.132 16.4045 84.4525 16.9709 84.6462 17.6863C84.8549 18.4017 84.9592 19.2959 84.9592 20.369V21.5762C84.9592 22.6493 84.8549 23.5435 84.6462 24.2589C84.4525 24.9743 84.132 25.5481 83.6849 25.9803C83.2378 26.3977 82.664 26.6957 81.9635 26.8746C81.263 27.0534 80.4135 27.1429 79.4149 27.1429C78.4014 27.1429 77.5445 27.0534 76.844 26.8746C76.1435 26.6957 75.5697 26.3977 75.1226 25.9803C74.6754 25.5481 74.3476 24.9743 74.1389 24.2589C73.9451 23.5435 73.8483 22.6493 73.8483 21.5762V20.369C73.8483 19.2959 73.9451 18.4017 74.1389 17.6863C74.3476 16.9709 74.6754 16.4045 75.1226 15.9872C75.5697 15.555 76.1435 15.2495 76.844 15.0706C77.5445 14.8918 78.4014 14.8023 79.4149 14.8023ZM82.0082 20.3243C82.0082 19.6387 81.971 19.0872 81.8964 18.6699C81.8219 18.2377 81.6878 17.9098 81.494 17.6863C81.3152 17.4627 81.0544 17.3137 80.7116 17.2391C80.3837 17.1646 79.9515 17.1274 79.4149 17.1274C78.8784 17.1274 78.4387 17.1646 78.0959 17.2391C77.7531 17.3137 77.4848 17.4627 77.2911 17.6863C77.1122 17.9098 76.9856 18.2377 76.911 18.6699C76.8365 19.0872 76.7993 19.6387 76.7993 20.3243V21.6433C76.7993 22.3289 76.8365 22.8803 76.911 23.2976C76.9856 23.7149 77.1122 24.0354 77.2911 24.2589C77.4848 24.4825 77.7531 24.6315 78.0959 24.706C78.4387 24.7806 78.8784 24.8178 79.4149 24.8178C79.9515 24.8178 80.3837 24.7806 80.7116 24.706C81.0544 24.6315 81.3152 24.4825 81.494 24.2589C81.6878 24.0354 81.8219 23.7149 81.8964 23.2976C81.971 22.8803 82.0082 22.3289 82.0082 21.6433V20.3243ZM89.5647 26.7852H86.6584V19.1394C86.6584 18.3942 86.7628 17.7682 86.9714 17.2615C87.1801 16.7399 87.4856 16.3225 87.888 16.0096C88.2904 15.6966 88.7823 15.473 89.3635 15.3389C89.9448 15.1898 90.608 15.1153 91.3532 15.1153C91.9195 15.1153 92.4039 15.1153 92.8063 15.1153C93.2087 15.1153 93.6037 15.1228 93.9912 15.1377L93.5217 17.5521C93.2236 17.5372 92.8958 17.5298 92.5381 17.5298C92.1804 17.5149 91.8823 17.5074 91.6438 17.5074C91.1669 17.5074 90.7943 17.5521 90.526 17.6416C90.2577 17.731 90.0491 17.8651 89.9001 18.044C89.751 18.2079 89.6541 18.424 89.6094 18.6923C89.5796 18.9457 89.5647 19.2512 89.5647 19.6089V26.7852ZM101.318 26.7852H99.5074C98.5684 26.7852 97.7934 26.7181 97.1823 26.584C96.5862 26.4498 96.1093 26.2188 95.7516 25.8909C95.4088 25.5481 95.1703 25.0936 95.0362 24.5272C94.902 23.9608 94.835 23.2529 94.835 22.4034V12.455L97.7412 11.9855V15.16H101.922L101.452 17.5521H97.7412V22.2469C97.7412 22.694 97.7636 23.0592 97.8083 23.3423C97.8679 23.6255 97.9648 23.8491 98.0989 24.013C98.248 24.1621 98.4492 24.2664 98.7026 24.326C98.9708 24.3707 99.3062 24.3931 99.7086 24.3931H101.788L101.318 26.7852ZM105.738 21.9563C105.738 22.4928 105.768 22.9325 105.827 23.2753C105.887 23.6181 106.006 23.8863 106.185 24.0801C106.379 24.2738 106.64 24.408 106.967 24.4825C107.295 24.557 107.728 24.5943 108.264 24.5943C108.786 24.5943 109.382 24.5943 110.053 24.5943C110.723 24.5943 111.55 24.5794 112.534 24.5496L112.087 26.7852C111.67 26.8001 111.297 26.8075 110.969 26.8075C110.641 26.8224 110.321 26.8299 110.008 26.8299C109.71 26.8299 109.412 26.8299 109.114 26.8299C108.816 26.8299 108.488 26.8299 108.13 26.8299C107.072 26.8299 106.2 26.7106 105.514 26.4722C104.829 26.2337 104.285 25.8909 103.882 25.4438C103.495 24.9967 103.219 24.4527 103.055 23.8118C102.906 23.156 102.832 22.4108 102.832 21.5762V20.3243C102.832 19.43 102.914 18.6401 103.078 17.9545C103.241 17.269 103.525 16.6951 103.927 16.2331C104.344 15.7562 104.896 15.3985 105.581 15.16C106.282 14.9216 107.161 14.8023 108.219 14.8023C109.203 14.8023 110.015 14.9141 110.656 15.1377C111.312 15.3463 111.834 15.6444 112.221 16.0319C112.624 16.4194 112.907 16.8814 113.071 17.418C113.235 17.9396 113.317 18.5134 113.317 19.1394V19.5195C113.317 20.0262 113.287 20.4435 113.227 20.7714C113.168 21.0844 113.063 21.3303 112.914 21.5091C112.78 21.688 112.601 21.8072 112.378 21.8668C112.154 21.9265 111.878 21.9563 111.55 21.9563H105.738ZM108.152 16.9932C107.646 16.9932 107.236 17.0379 106.923 17.1274C106.61 17.2019 106.364 17.3509 106.185 17.5745C106.006 17.7831 105.887 18.0738 105.827 18.4464C105.768 18.8041 105.738 19.2661 105.738 19.8324H110.544V19.3183C110.544 18.886 110.507 18.5209 110.433 18.2228C110.358 17.9247 110.231 17.6863 110.053 17.5074C109.874 17.3286 109.628 17.2019 109.315 17.1274C109.002 17.0379 108.614 16.9932 108.152 16.9932ZM114.899 10.1746H117.806V26.7852H114.899V10.1746Z" fill="#FAFAFA"/>
<g clip-path="url(#clip0_5728_8889)">
<path d="M0.0703125 7.68858C0.0703125 3.73623 3.27432 0.532227 7.22666 0.532227H29.85C33.8023 0.532227 37.0063 3.73623 37.0063 7.68858V30.3119C37.0063 34.2642 33.8023 37.4682 29.85 37.4682H7.22666C3.27432 37.4682 0.0703125 34.2642 0.0703125 30.3119V7.68858Z" fill="#66E8FA"/>
<path d="M18.7516 7.91943C17.2216 7.91943 15.9814 9.15969 15.9814 10.6896V18.4569C15.9814 20.169 14.5757 21.5569 12.8428 21.5569L9.30431 21.5574C8.28435 21.5574 7.45751 22.3842 7.45751 23.4042V28.2343C7.45751 29.2542 8.28435 30.0811 9.30431 30.0811H14.1344C15.1544 30.0811 15.9812 29.2542 15.9812 28.2343V24.5019C16.0685 22.8638 17.4404 21.5573 19.1199 21.5573H26.8491C28.379 21.5573 29.6193 20.3171 29.6193 18.7871V10.6896C29.6193 9.15969 28.379 7.91943 26.8491 7.91943H18.7516Z" fill="#252829"/>
</g>
<defs>
<clipPath id="clip0_5728_8889">
<rect x="0.0703125" y="0.532227" width="36.936" height="36.936" rx="9" fill="white"/>
</clipPath>
</defs>
</svg>
