<svg width="118" height="38" viewBox="0 0 118 38" fill="none" xmlns="http://www.w3.org/2000/svg">
<path d="M114.898 10.1758H117.805V26.7863H114.898V10.1758Z" fill="#FAFAFA"/>
<path d="M105.738 21.9576C105.738 22.4942 105.768 22.9338 105.828 23.2766C105.887 23.6194 106.007 23.8877 106.185 24.0815C106.379 24.2752 106.64 24.4093 106.968 24.4839C107.296 24.5584 107.728 24.5956 108.265 24.5956C108.786 24.5956 109.382 24.5956 110.053 24.5956C110.724 24.5956 111.551 24.5807 112.535 24.5509L112.087 26.7865C111.67 26.8014 111.298 26.8089 110.97 26.8089C110.642 26.8238 110.321 26.8312 110.008 26.8312C109.71 26.8312 109.412 26.8312 109.114 26.8312C108.816 26.8312 108.488 26.8312 108.13 26.8312C107.072 26.8312 106.2 26.712 105.515 26.4735C104.829 26.2351 104.285 25.8923 103.883 25.4452C103.495 24.998 103.22 24.4541 103.056 23.8132C102.907 23.1574 102.832 22.4122 102.832 21.5776V20.3256C102.832 19.4314 102.914 18.6415 103.078 17.9559C103.242 17.2703 103.525 16.6965 103.927 16.2345C104.345 15.7576 104.896 15.3999 105.582 15.1614C106.282 14.9229 107.162 14.8037 108.22 14.8037C109.203 14.8037 110.016 14.9155 110.657 15.1391C111.312 15.3477 111.834 15.6458 112.222 16.0333C112.624 16.4208 112.907 16.8828 113.071 17.4194C113.235 17.941 113.317 18.5148 113.317 19.1408V19.5208C113.317 20.0276 113.287 20.4449 113.228 20.7728C113.168 21.0857 113.064 21.3317 112.915 21.5105C112.78 21.6894 112.602 21.8086 112.378 21.8682C112.154 21.9278 111.879 21.9576 111.551 21.9576H105.738ZM108.153 16.9946C107.646 16.9946 107.236 17.0393 106.923 17.1287C106.61 17.2033 106.364 17.3523 106.185 17.5759C106.007 17.7845 105.887 18.0751 105.828 18.4477C105.768 18.8054 105.738 19.2675 105.738 19.8338H110.545V19.3196C110.545 18.8874 110.508 18.5223 110.433 18.2242C110.359 17.9261 110.232 17.6876 110.053 17.5088C109.874 17.3299 109.628 17.2033 109.315 17.1287C109.002 17.0393 108.615 16.9946 108.153 16.9946Z" fill="#FAFAFA"/>
<path d="M101.315 26.786H99.5044C98.5655 26.786 97.7905 26.7189 97.1794 26.5848C96.5833 26.4507 96.1063 26.2196 95.7486 25.8918C95.4058 25.549 95.1674 25.0944 95.0332 24.528C94.8991 23.9617 94.832 23.2538 94.832 22.4042V12.4558L97.7383 11.9863V15.1609H101.919L101.449 17.553H97.7383V22.2477C97.7383 22.6949 97.7607 23.06 97.8054 23.3432C97.865 23.6264 97.9619 23.8499 98.096 24.0139C98.245 24.1629 98.4463 24.2672 98.6996 24.3268C98.9679 24.3716 99.3032 24.3939 99.7056 24.3939H101.785L101.315 26.786Z" fill="#FAFAFA"/>
<path d="M89.5625 26.786H86.6562V19.1403C86.6562 18.3951 86.7606 17.7691 86.9692 17.2624C87.1779 16.7407 87.4834 16.3234 87.8858 16.0105C88.2882 15.6975 88.7801 15.4739 89.3613 15.3398C89.9426 15.1907 90.6058 15.1162 91.351 15.1162C91.9174 15.1162 92.4017 15.1162 92.8041 15.1162C93.2066 15.1162 93.6015 15.1237 93.989 15.1386L93.5195 17.553C93.2215 17.5381 92.8936 17.5307 92.5359 17.5307C92.1782 17.5158 91.8801 17.5083 91.6416 17.5083C91.1647 17.5083 90.7921 17.553 90.5238 17.6424C90.2556 17.7319 90.0469 17.866 89.8979 18.0448C89.7488 18.2088 89.652 18.4249 89.6072 18.6932C89.5774 18.9465 89.5625 19.2521 89.5625 19.6098V26.786Z" fill="#FAFAFA"/>
<path d="M79.4143 14.8037C80.4129 14.8037 81.2624 14.8931 81.9629 15.072C82.6634 15.2508 83.2372 15.5564 83.6843 15.9886C84.1314 16.4059 84.4519 16.9722 84.6456 17.6876C84.8543 18.403 84.9586 19.2973 84.9586 20.3704V21.5776C84.9586 22.6507 84.8543 23.5449 84.6456 24.2603C84.4519 24.9757 84.1314 25.5495 83.6843 25.9817C83.2372 26.399 82.6634 26.6971 81.9629 26.876C81.2624 27.0548 80.4129 27.1442 79.4143 27.1442C78.4008 27.1442 77.5438 27.0548 76.8434 26.876C76.1429 26.6971 75.5691 26.399 75.1219 25.9817C74.6748 25.5495 74.3469 24.9757 74.1383 24.2603C73.9445 23.5449 73.8477 22.6507 73.8477 21.5776V20.3704C73.8477 19.2973 73.9445 18.403 74.1383 17.6876C74.3469 16.9722 74.6748 16.4059 75.1219 15.9886C75.5691 15.5564 76.1429 15.2508 76.8434 15.072C77.5438 14.8931 78.4008 14.8037 79.4143 14.8037ZM82.0076 20.3256C82.0076 19.6401 81.9703 19.0886 81.8958 18.6713C81.8213 18.2391 81.6872 17.9112 81.4934 17.6876C81.3146 17.4641 81.0537 17.315 80.7109 17.2405C80.3831 17.166 79.9508 17.1287 79.4143 17.1287C78.8778 17.1287 78.4381 17.166 78.0953 17.2405C77.7525 17.315 77.4842 17.4641 77.2905 17.6876C77.1116 17.9112 76.9849 18.2391 76.9104 18.6713C76.8359 19.0886 76.7986 19.6401 76.7986 20.3256V21.6446C76.7986 22.3302 76.8359 22.8817 76.9104 23.299C76.9849 23.7163 77.1116 24.0367 77.2905 24.2603C77.4842 24.4839 77.7525 24.6329 78.0953 24.7074C78.4381 24.7819 78.8778 24.8192 79.4143 24.8192C79.9508 24.8192 80.3831 24.7819 80.7109 24.7074C81.0537 24.6329 81.3146 24.4839 81.4934 24.2603C81.6872 24.0367 81.8213 23.7163 81.8958 23.299C81.9703 22.8817 82.0076 22.3302 82.0076 21.6446V20.3256Z" fill="#FAFAFA"/>
<path d="M65.9147 15.161L65.4676 17.5531H62.293V26.7861H59.3867V15.5187C59.3867 14.5201 59.4836 13.678 59.6773 12.9924C59.8711 12.3068 60.1841 11.7554 60.6163 11.3381C61.0634 10.9059 61.6372 10.6003 62.3377 10.4215C63.0531 10.2277 63.925 10.1309 64.9534 10.1309C65.1769 10.1309 65.4079 10.1309 65.6464 10.1309C65.8998 10.1309 66.2575 10.1458 66.7195 10.1756L66.2724 12.5677C66.1084 12.5528 65.8998 12.5453 65.6464 12.5453C65.4079 12.5304 65.1844 12.523 64.9757 12.523C64.4839 12.523 64.0666 12.5602 63.7238 12.6347C63.381 12.6943 63.1053 12.821 62.8966 13.0148C62.688 13.2085 62.5389 13.4768 62.4495 13.8196C62.3601 14.1624 62.3079 14.6095 62.293 15.161H65.9147ZM73.6946 15.161L73.2251 17.5531H69.894V26.7861H66.9878V15.5187C66.9878 14.5201 67.0846 13.678 67.2784 12.9924C67.4721 12.3068 67.7851 11.7554 68.2173 11.3381C68.6645 10.9059 69.2383 10.6003 69.9388 10.4215C70.6541 10.2277 71.526 10.1309 72.5544 10.1309C72.8078 10.1309 73.1133 10.1383 73.471 10.1532C73.8287 10.1532 74.1938 10.1607 74.5664 10.1756L74.1193 12.5677C73.9107 12.5528 73.6797 12.5453 73.4263 12.5453C73.1729 12.5304 72.8897 12.523 72.5768 12.523C72.0849 12.523 71.6676 12.5602 71.3248 12.6347C70.982 12.6943 70.7063 12.821 70.4977 13.0148C70.289 13.2085 70.14 13.4768 70.0505 13.8196C69.9611 14.1624 69.9089 14.6095 69.894 15.161H73.6946Z" fill="#FAFAFA"/>
<path d="M50.2266 21.9576C50.2266 22.4942 50.2564 22.9338 50.316 23.2766C50.3756 23.6194 50.4949 23.8877 50.6737 24.0815C50.8675 24.2752 51.1283 24.4093 51.4562 24.4839C51.7841 24.5584 52.2163 24.5956 52.7528 24.5956C53.2745 24.5956 53.8706 24.5956 54.5413 24.5956C55.212 24.5956 56.0392 24.5807 57.0228 24.5509L56.5757 26.7865C56.1584 26.8014 55.7858 26.8089 55.4579 26.8089C55.13 26.8238 54.8096 26.8312 54.4966 26.8312C54.1985 26.8312 53.9004 26.8312 53.6023 26.8312C53.3043 26.8312 52.9764 26.8312 52.6187 26.8312C51.5605 26.8312 50.6886 26.712 50.003 26.4735C49.3174 26.2351 48.7735 25.8923 48.371 25.4452C47.9835 24.998 47.7078 24.4541 47.5439 23.8132C47.3948 23.1574 47.3203 22.4122 47.3203 21.5776V20.3256C47.3203 19.4314 47.4023 18.6415 47.5662 17.9559C47.7302 17.2703 48.0133 16.6965 48.4158 16.2345C48.8331 15.7576 49.3845 15.3999 50.0701 15.1614C50.7706 14.9229 51.6499 14.8037 52.7081 14.8037C53.6918 14.8037 54.504 14.9155 55.1449 15.1391C55.8007 15.3477 56.3223 15.6458 56.7098 16.0333C57.1122 16.4208 57.3954 16.8828 57.5594 17.4194C57.7233 17.941 57.8053 18.5148 57.8053 19.1408V19.5208C57.8053 20.0276 57.7755 20.4449 57.7159 20.7728C57.6562 21.0857 57.5519 21.3317 57.4029 21.5105C57.2687 21.6894 57.0899 21.8086 56.8663 21.8682C56.6428 21.9278 56.367 21.9576 56.0392 21.9576H50.2266ZM52.641 16.9946C52.1343 16.9946 51.7244 17.0393 51.4115 17.1287C51.0985 17.2033 50.8526 17.3523 50.6737 17.5759C50.4949 17.7845 50.3756 18.0751 50.316 18.4477C50.2564 18.8054 50.2266 19.2675 50.2266 19.8338H55.0331V19.3196C55.0331 18.8874 54.9959 18.5223 54.9214 18.2242C54.8468 17.9261 54.7201 17.6876 54.5413 17.5088C54.3625 17.3299 54.1165 17.2033 53.8036 17.1287C53.4906 17.0393 53.1031 16.9946 52.641 16.9946Z" fill="#FAFAFA"/>
<g clip-path="url(#clip0_5728_8905)">
<path d="M0.0703125 7.68858C0.0703125 3.73623 3.27432 0.532227 7.22666 0.532227H29.85C33.8023 0.532227 37.0063 3.73623 37.0063 7.68858V30.3119C37.0063 34.2642 33.8023 37.4682 29.85 37.4682H7.22666C3.27432 37.4682 0.0703125 34.2642 0.0703125 30.3119V7.68858Z" fill="#E4EDF1"/>
<path d="M18.7516 7.91943C17.2216 7.91943 15.9814 9.15969 15.9814 10.6896V18.4569C15.9814 20.169 14.5757 21.5569 12.8428 21.5569L9.30431 21.5574C8.28435 21.5574 7.45751 22.3842 7.45751 23.4042V28.2343C7.45751 29.2542 8.28435 30.0811 9.30431 30.0811H14.1344C15.1544 30.0811 15.9812 29.2542 15.9812 28.2343V24.5019C16.0685 22.8638 17.4404 21.5573 19.1199 21.5573H26.8491C28.379 21.5573 29.6193 20.3171 29.6193 18.7871V10.6896C29.6193 9.15969 28.379 7.91943 26.8491 7.91943H18.7516Z" fill="#252829"/>
</g>
<defs>
<clipPath id="clip0_5728_8905">
<rect x="0.0703125" y="0.532227" width="36.936" height="36.936" rx="9" fill="white"/>
</clipPath>
</defs>
</svg>
