<svg width="448" height="376" viewBox="0 0 448 376" fill="none" xmlns="http://www.w3.org/2000/svg">
<path d="M44.4268 145.84L41.953 140.573V153.341H39.293V134.721H41.953L45.145 141.663L48.337 134.721H50.997V153.341H48.337V140.573L45.8632 145.84H44.4268ZM62.1586 134.721H64.8186V140.839L60.2966 153.341H57.6366L53.1146 140.839V134.721H55.7746V140.36L58.94 149.138H58.9932L62.1586 140.36V134.721ZM73.8523 150.654C75.0227 150.654 75.9803 149.697 75.9803 148.526V139.509C75.9803 138.312 75.0493 137.381 73.8523 137.381H71.7243C70.5273 137.381 69.5963 138.338 69.5963 139.509V148.526C69.5963 149.697 70.5539 150.654 71.7243 150.654H73.8523ZM66.9363 148.526V139.509C66.9363 136.849 69.0909 134.721 71.7243 134.721H73.8523C76.5123 134.721 78.6403 136.849 78.6403 139.509V148.526C78.6403 151.16 76.5123 153.341 73.8523 153.341H71.7243C69.0909 153.341 66.9363 151.16 66.9363 148.526Z" fill="#252829"/>
<g clip-path="url(#clip0_6489_16139)">
<rect x="55.2236" y="193.814" width="172.852" height="172.114" rx="21" fill="#92A6B0"/>
<path d="M78.734 224.247L76.8908 220.322V229.836H74.9088V215.962H76.8908L79.2692 221.135L81.6476 215.962H83.6295V229.836H81.6476V220.322L79.8043 224.247H78.734ZM91.9461 215.962H93.9281V229.836H91.0542L87.1894 219.292V229.836H85.2074V215.962H88.0813L91.9461 226.506V215.962ZM100.659 227.834C101.531 227.834 102.245 227.121 102.245 226.249V219.53C102.245 218.638 101.551 217.944 100.659 217.944H99.0735C98.1816 217.944 97.4879 218.658 97.4879 219.53V226.249C97.4879 227.121 98.2014 227.834 99.0735 227.834H100.659ZM95.5059 226.249V219.53C95.5059 217.548 97.1113 215.962 99.0735 215.962H100.659C102.641 215.962 104.227 217.548 104.227 219.53V226.249C104.227 228.211 102.641 229.836 100.659 229.836H99.0735C97.1113 229.836 95.5059 228.211 95.5059 226.249Z" fill="#252829"/>
<circle opacity="0.3" cx="141.649" cy="467.578" r="157.395" fill="#C3D3DA"/>
</g>
<g clip-path="url(#clip1_6489_16139)">
<path d="M117.75 327.118L141.656 278.18L165.562 327.118" stroke="#252829" stroke-width="4.704" stroke-linecap="round" stroke-linejoin="round"/>
<path d="M128.585 280.617C128.238 278.658 128.316 276.646 128.813 274.722C129.31 272.798 130.213 271.008 131.46 269.481C132.706 267.953 134.265 266.725 136.027 265.881C137.788 265.038 139.709 264.601 141.653 264.601C143.598 264.601 145.519 265.038 147.28 265.881C149.041 266.725 150.6 267.953 151.847 269.481C153.093 271.008 153.997 272.798 154.494 274.722C154.991 276.646 155.069 278.658 154.722 280.617" stroke="#252829" stroke-width="4.704" stroke-linecap="round" stroke-linejoin="round"/>
<path d="M122.574 292.923C119.896 289.29 118.261 284.966 117.852 280.435C117.442 275.904 118.276 271.346 120.258 267.273C122.24 263.2 125.293 259.773 129.073 257.378C132.853 254.983 137.21 253.714 141.656 253.714C146.102 253.714 150.46 254.983 154.24 257.378C158.02 259.773 161.072 263.2 163.055 267.273C165.037 271.346 165.87 275.904 165.461 280.435C165.052 284.966 163.416 289.29 160.738 292.923" stroke="#252829" stroke-width="4.704" stroke-linecap="round" stroke-linejoin="round"/>
<path d="M123.061 316.242H160.248" stroke="#252829" stroke-width="4.704" stroke-linecap="round" stroke-linejoin="round"/>
<path d="M128.372 305.368H154.935" stroke="#252829" stroke-width="4.704" stroke-linecap="round" stroke-linejoin="round"/>
</g>
<rect x="231.075" y="18.7002" width="172.589" height="172.114" rx="21" fill="#92A6B0"/>
<path d="M231.075 215.874C231.075 203.691 240.952 193.814 253.135 193.814H322.874C335.057 193.814 344.934 203.691 344.934 215.874V285.613C344.934 297.796 335.057 307.673 322.874 307.673H253.135C240.952 307.673 231.075 297.796 231.075 285.613V215.874Z" fill="#6CECFD"/>
<path d="M288.662 216.586C283.946 216.586 280.123 220.409 280.123 225.125V249.068C280.123 254.346 275.789 258.624 270.448 258.624L259.54 258.626C256.396 258.626 253.847 261.175 253.847 264.319V279.208C253.847 282.352 256.396 284.901 259.54 284.901H274.429C277.573 284.901 280.122 282.352 280.122 279.208V267.703C280.391 262.653 284.62 258.626 289.797 258.626H313.623C318.339 258.626 322.163 254.803 322.163 250.086V225.125C322.163 220.409 318.339 216.586 313.623 216.586H288.662Z" fill="#1F2223"/>
<rect x="112.545" y="123.49" width="115.53" height="67.3236" rx="33.6618" fill="#6CECFD"/>
<rect x="164.54" y="127.366" width="59.571" height="59.571" rx="29.7855" fill="#252829"/>
<path d="M252.252 47.3781L250.408 43.4538V52.9673H248.426V39.0934H250.408L252.787 44.2664L255.165 39.0934H257.147V52.9673H255.165V43.4538L253.322 47.3781H252.252ZM265.464 39.0934H267.446V43.652L264.076 52.9673H262.094L258.725 43.652V39.0934H260.707V43.2952L263.065 49.8358H263.105L265.464 43.2952V39.0934ZM275.762 39.0934H277.744V52.9673H274.87L271.005 42.4232V52.9673H269.024V39.0934H271.897L275.762 49.6376V39.0934ZM284.475 50.9655C285.347 50.9655 286.061 50.252 286.061 49.3799V42.661C286.061 41.7691 285.367 41.0754 284.475 41.0754H282.89C281.998 41.0754 281.304 41.7889 281.304 42.661V49.3799C281.304 50.252 282.018 50.9655 282.89 50.9655H284.475ZM279.322 49.3799V42.661C279.322 40.679 280.927 39.0934 282.89 39.0934H284.475C286.457 39.0934 288.043 40.679 288.043 42.661V49.3799C288.043 51.3421 286.457 52.9673 284.475 52.9673H282.89C280.927 52.9673 279.322 51.3421 279.322 49.3799Z" fill="#252829"/>
<g clip-path="url(#clip2_6489_16139)">
<path d="M194.445 150.547L187.427 157.564C186.292 158.699 186.292 160.54 187.427 161.675L190.099 164.347C191.234 165.482 193.075 165.482 194.21 164.347L201.227 157.33C202.362 156.195 202.362 154.354 201.227 153.219L198.555 150.547C197.42 149.412 195.58 149.412 194.445 150.547Z" stroke="#B1C5CE" stroke-width="1.93775" stroke-linecap="round" stroke-linejoin="round"/>
<path d="M189.48 152.603L199.169 162.291" stroke="#B1C5CE" stroke-width="1.93775" stroke-linecap="round" stroke-linejoin="round"/>
<path d="M206.916 144.852L199.885 151.883" stroke="#B1C5CE" stroke-width="1.93775" stroke-linecap="round" stroke-linejoin="round"/>
<path d="M188.758 163.01L181.727 170.041" stroke="#B1C5CE" stroke-width="1.93775" stroke-linecap="round" stroke-linejoin="round"/>
<path d="M190.446 145.822L191.415 148.244" stroke="#B1C5CE" stroke-width="1.93775" stroke-linecap="round" stroke-linejoin="round"/>
<path d="M182.7 153.572L185.122 154.541" stroke="#B1C5CE" stroke-width="1.93775" stroke-linecap="round" stroke-linejoin="round"/>
<path d="M203.522 160.353L205.945 161.322" stroke="#B1C5CE" stroke-width="1.93775" stroke-linecap="round" stroke-linejoin="round"/>
<path d="M197.237 166.653L198.206 169.075" stroke="#B1C5CE" stroke-width="1.93775" stroke-linecap="round" stroke-linejoin="round"/>
</g>
<mask id="path-24-outside-1_6489_16139" maskUnits="userSpaceOnUse" x="260.406" y="75.2544" width="114" height="71" fill="black">
<rect fill="white" x="260.406" y="75.2544" width="114" height="71"/>
<path fill-rule="evenodd" clip-rule="evenodd" d="M286.852 141.489C285.56 141.776 284.218 141.927 282.84 141.927C272.66 141.927 264.406 133.674 264.406 123.493C264.406 113.312 272.66 105.058 282.84 105.058C283.203 105.058 283.563 105.069 283.92 105.09C286.52 90.4062 299.345 79.2544 314.775 79.2544C325.83 79.2544 335.548 84.9787 341.126 93.6249C342.679 93.3146 344.286 93.1518 345.93 93.1518C359.399 93.1518 370.317 104.07 370.317 117.539C370.317 131.007 359.399 141.925 345.93 141.925C345.859 141.925 345.787 141.925 345.715 141.924V141.947H286.852V141.489Z"/>
</mask>
<path d="M286.852 141.489H290.852V136.504L285.985 137.584L286.852 141.489ZM283.92 105.09L283.689 109.083L287.238 109.288L287.858 105.787L283.92 105.09ZM341.126 93.6249L337.765 95.7935L339.241 98.0807L341.91 97.5474L341.126 93.6249ZM345.715 141.924L345.75 137.925L341.715 137.89V141.924H345.715ZM345.715 141.947V145.947H349.715V141.947H345.715ZM286.852 141.947H282.852V145.947H286.852V141.947ZM285.985 137.584C284.976 137.808 283.925 137.927 282.84 137.927V145.927C284.511 145.927 286.144 145.743 287.718 145.394L285.985 137.584ZM282.84 137.927C274.869 137.927 268.406 131.464 268.406 123.493H260.406C260.406 135.883 270.45 145.927 282.84 145.927V137.927ZM268.406 123.493C268.406 115.521 274.869 109.058 282.84 109.058V101.058C270.45 101.058 260.406 111.103 260.406 123.493H268.406ZM282.84 109.058C283.126 109.058 283.409 109.067 283.689 109.083L284.15 101.096C283.716 101.071 283.28 101.058 282.84 101.058V109.058ZM287.858 105.787C290.126 92.9807 301.319 83.2544 314.775 83.2544V75.2544C297.372 75.2544 282.914 87.8317 279.981 104.392L287.858 105.787ZM314.775 83.2544C324.415 83.2544 332.892 88.2407 337.765 95.7935L344.487 91.4564C338.203 81.7168 327.245 75.2544 314.775 75.2544V83.2544ZM341.91 97.5474C343.206 97.2883 344.55 97.1518 345.93 97.1518V89.1518C344.021 89.1518 342.152 89.3408 340.342 89.7025L341.91 97.5474ZM345.93 97.1518C357.19 97.1518 366.317 106.279 366.317 117.539H374.317C374.317 101.861 361.608 89.1518 345.93 89.1518V97.1518ZM366.317 117.539C366.317 128.798 357.19 137.925 345.93 137.925V145.925C361.608 145.925 374.317 133.216 374.317 117.539H366.317ZM345.93 137.925C345.87 137.925 345.81 137.925 345.75 137.925L345.68 145.924C345.764 145.925 345.847 145.925 345.93 145.925V137.925ZM341.715 141.924V141.947H349.715V141.924H341.715ZM345.715 137.947H286.852V145.947H345.715V137.947ZM290.852 141.947V141.489H282.852V141.947H290.852Z" fill="#252829" mask="url(#path-24-outside-1_6489_16139)"/>
<path d="M50.4024 280.617H39.5518C31.8198 280.617 25.5518 274.349 25.5518 266.617V81.6232C25.5518 73.8912 31.8198 67.6232 39.5518 67.6232H220.259M220.259 67.6232L211.145 58.8101M220.259 67.6232L211.145 76.4364" stroke="#3B4144" stroke-width="1.5"/>
<g clip-path="url(#clip3_6489_16139)">
<path d="M317 118C321.556 118 325.25 115.985 325.25 113.5C325.25 111.015 321.556 109 317 109C312.444 109 308.75 111.015 308.75 113.5C308.75 115.985 312.444 118 317 118Z" stroke="#252829" stroke-width="2" stroke-linecap="round" stroke-linejoin="round"/>
<path d="M308.75 113.5V118C308.75 120.485 312.444 122.5 317 122.5C321.556 122.5 325.25 120.485 325.25 118V113.5" stroke="#252829" stroke-width="2" stroke-linecap="round" stroke-linejoin="round"/>
<path d="M308.75 118V122.5C308.75 124.985 312.444 127 317 127C321.556 127 325.25 124.985 325.25 122.5V118" stroke="#252829" stroke-width="2" stroke-linecap="round" stroke-linejoin="round"/>
</g>
<defs>
<clipPath id="clip0_6489_16139">
<rect x="55.2236" y="193.814" width="172.852" height="172.114" rx="21" fill="white"/>
</clipPath>
<clipPath id="clip1_6489_16139">
<rect width="85" height="87" fill="white" transform="translate(99.1494 248.274)"/>
</clipPath>
<clipPath id="clip2_6489_16139">
<rect width="31.0041" height="31.0041" fill="white" transform="translate(178.823 141.947)"/>
</clipPath>
<clipPath id="clip3_6489_16139">
<rect width="24" height="24" fill="white" transform="translate(305 106)"/>
</clipPath>
</defs>
</svg>
