<svg width="448" height="377" viewBox="0 0 448 377" fill="none" xmlns="http://www.w3.org/2000/svg">
<g clip-path="url(#clip0_6479_47598)">
<rect x="0.165039" y="96.6689" width="372.832" height="241.219" rx="21.2355" fill="#92A6B0"/>
<path d="M39.1569 144.656H41.1389V145.449C41.1389 146.381 41.9118 147.154 42.8434 147.154H44.1713C45.1821 147.154 45.8956 146.52 45.8956 145.647C45.8956 142.912 39.3551 142.318 39.3551 138.552C39.3551 136.61 40.8812 135.262 43.0416 135.262H43.9731C46.0145 135.262 47.6794 136.907 47.6794 138.948V139.543H45.6974V138.948C45.6974 137.997 44.9244 137.244 43.9731 137.244H43.0416C41.9713 137.244 41.3371 137.739 41.3371 138.552C41.3371 140.653 47.8776 141.465 47.8776 145.647C47.8776 147.629 46.2722 149.136 44.1713 149.136H42.8434C40.8019 149.136 39.1569 147.491 39.1569 145.449V144.656ZM49.4554 135.262H58.1761V137.244H54.8068V149.136H52.8248V137.244H49.4554V135.262ZM68.4747 149.136H66.2945L63.7774 143.586H61.736V149.136H59.754V135.262H64.9071C66.8891 135.262 68.4747 136.847 68.4747 138.829V140.019C68.4747 141.664 67.3846 143.031 65.8783 143.447L68.4747 149.136ZM61.736 141.604H64.9071C65.799 141.604 66.4927 140.911 66.4927 140.019V138.829C66.4927 137.938 65.799 137.244 64.9071 137.244H61.736V141.604ZM78.7732 135.262V137.244H72.0345V140.871H77.9805V142.853H72.0345V147.154H78.7732V149.136H70.0525V135.262H78.7732ZM82.3331 149.136H80.3511V144.577L83.7205 135.262H85.7024L89.0718 144.577V149.136H87.0898V145.925H82.3331V149.136ZM82.6898 143.943H86.7331L84.7313 138.393H84.6916L82.6898 143.943ZM94.4749 143.547L92.6316 139.622V149.136H90.6496V135.262H92.6316L95.01 140.435L97.3884 135.262H99.3704V149.136H97.3884V139.622L95.5451 143.547H94.4749ZM118.501 143.19V142.992H120.483V143.19C120.483 144.419 120.126 145.568 119.492 146.539C120.086 147.451 120.483 148.343 120.483 149.136H118.501C118.501 148.819 118.362 148.442 118.124 148.006C117.193 148.72 116.043 149.136 114.814 149.136C112.178 149.136 110.731 147.253 110.731 144.419L113.308 142.001C112.575 140.95 112.059 139.939 112.059 139.028C112.059 136.847 113.486 135.262 115.468 135.262C117.589 135.262 119.056 137.065 118.858 139.483L115.964 142.199C116.658 143.031 117.45 143.903 118.184 144.775C118.382 144.3 118.501 143.745 118.501 143.19ZM112.713 145.271C112.832 146.5 113.566 147.154 114.814 147.154C115.607 147.154 116.34 146.876 116.955 146.401C116.222 145.529 115.33 144.557 114.517 143.566L112.713 145.271ZM114.041 139.028C114.041 139.464 114.319 140.019 114.735 140.653L116.876 138.631C116.737 137.759 116.222 137.244 115.468 137.244C114.616 137.244 114.041 137.918 114.041 139.028ZM39.1569 163.656H41.1389V164.449C41.1389 165.381 41.9118 166.154 42.8434 166.154H44.1713C45.1821 166.154 45.8956 165.52 45.8956 164.647C45.8956 161.912 39.3551 161.318 39.3551 157.552C39.3551 155.61 40.8812 154.262 43.0416 154.262H43.9731C46.0145 154.262 47.6794 155.907 47.6794 157.948V158.543H45.6974V157.948C45.6974 156.997 44.9244 156.244 43.9731 156.244H43.0416C41.9713 156.244 41.3371 156.739 41.3371 157.552C41.3371 159.653 47.8776 160.465 47.8776 164.647C47.8776 166.629 46.2722 168.136 44.1713 168.136H42.8434C40.8019 168.136 39.1569 166.491 39.1569 164.449V163.656ZM58.1761 164.548C58.1761 166.511 56.5707 168.136 54.6086 168.136H53.023C51.041 168.136 49.4554 166.511 49.4554 164.548V154.262H51.4374V164.548C51.4374 165.42 52.1509 166.134 53.023 166.134H54.6086C55.4806 166.134 56.1942 165.42 56.1942 164.548V154.262H58.1761V164.548ZM68.4747 168.136H66.2945L63.7774 162.586H61.736V168.136H59.754V154.262H64.9071C66.8891 154.262 68.4747 155.847 68.4747 157.829V159.019C68.4747 160.664 67.3846 162.031 65.8783 162.447L68.4747 168.136ZM61.736 160.604H64.9071C65.799 160.604 66.4927 159.911 66.4927 159.019V157.829C66.4927 156.938 65.799 156.244 64.9071 156.244H61.736V160.604ZM78.7732 154.262V156.244H72.0345V160.465H77.9805V162.447H72.0345V168.136H70.0525V154.262H78.7732Z" fill="#252829"/>
<rect x="140.505" y="26.0498" width="232.49" height="67.7872" rx="18.4041" fill="#66E8FA"/>
<rect x="375.779" y="26.0498" width="67.8798" height="67.7872" rx="18.4041" fill="#66E8FA"/>
<path d="M168.654 52.6023V64.834H175.585V66.8726H166.615V52.6023H168.654ZM179.858 66.8726H177.82V62.1838L181.285 52.6023H183.324L186.79 62.1838V66.8726H184.751V63.57H179.858V66.8726ZM180.225 61.5314H184.384L182.325 55.8233H182.284L180.225 61.5314ZM197.994 63.1827C197.994 65.2009 196.343 66.8726 194.324 66.8726H192.694C190.655 66.8726 189.024 65.2009 189.024 63.1827V52.6023H191.063V63.1827C191.063 64.0797 191.797 64.8136 192.694 64.8136H194.324C195.221 64.8136 195.955 64.0797 195.955 63.1827V52.6023H197.994V63.1827ZM207.16 52.6023H209.198V66.8726H206.242L202.267 56.0272V66.8726H200.228V52.6023H203.184L207.16 63.4477V52.6023ZM218.364 56.2718C218.364 55.3544 217.651 54.6409 216.733 54.6409H215.102C214.185 54.6409 213.471 55.3748 213.471 56.2718V63.1827C213.471 64.0797 214.205 64.8136 215.102 64.8136H216.733C217.63 64.8136 218.364 64.0797 218.364 63.1827V62.0614H220.403V63.1827C220.403 65.2009 218.772 66.8726 216.733 66.8726H215.102C213.084 66.8726 211.433 65.2009 211.433 63.1827V56.2718C211.433 54.2332 213.084 52.6023 215.102 52.6023H216.733C218.772 52.6023 220.403 54.2332 220.403 56.2718V57.393H218.364V56.2718ZM224.676 52.6023V58.3104H229.568V52.6023H231.607V66.8726H229.568V60.349H224.676V66.8726H222.637V52.6023H224.676ZM248.512 66.8726V61.7964L245.046 57.495V52.6023H247.085V56.7611L249.49 59.7578H249.531L251.977 56.5572V52.6023H254.016V57.2503L250.55 61.7964V66.8726H248.512ZM261.551 64.8136C262.448 64.8136 263.182 64.0797 263.182 63.1827V56.2718C263.182 55.3544 262.468 54.6409 261.551 54.6409H259.92C259.002 54.6409 258.289 55.3748 258.289 56.2718V63.1827C258.289 64.0797 259.023 64.8136 259.92 64.8136H261.551ZM256.25 63.1827V56.2718C256.25 54.2332 257.902 52.6023 259.92 52.6023H261.551C263.589 52.6023 265.22 54.2332 265.22 56.2718V63.1827C265.22 65.2009 263.589 66.8726 261.551 66.8726H259.92C257.902 66.8726 256.25 65.2009 256.25 63.1827ZM276.425 63.1827C276.425 65.2009 274.773 66.8726 272.755 66.8726H271.124C269.086 66.8726 267.455 65.2009 267.455 63.1827V52.6023H269.493V63.1827C269.493 64.0797 270.227 64.8136 271.124 64.8136H272.755C273.652 64.8136 274.386 64.0797 274.386 63.1827V52.6023H276.425V63.1827ZM287.629 66.8726H285.386L282.797 61.1645H280.698V66.8726H278.659V52.6023H283.959C285.998 52.6023 287.629 54.2332 287.629 56.2718V57.495C287.629 59.187 286.508 60.5936 284.958 61.0218L287.629 66.8726ZM280.698 59.1258H283.959C284.877 59.1258 285.59 58.4123 285.59 57.495V56.2718C285.59 55.3544 284.877 54.6409 283.959 54.6409H280.698V59.1258ZM305.002 61.1237L303.106 57.0872V66.8726H301.068V52.6023H303.106L305.553 57.9231L307.999 52.6023H310.038V66.8726H307.999V57.0872L306.103 61.1237H305.002ZM319.203 52.6023H321.242V57.2911L317.776 66.8726H315.738L312.272 57.2911V52.6023H314.311V56.9242L316.737 63.6516H316.778L319.203 56.9242V52.6023ZM330.408 52.6023H332.446V66.8726H329.49L325.515 56.0272V66.8726H323.477V52.6023H326.433L330.408 63.4477V52.6023ZM339.981 64.8136C340.878 64.8136 341.612 64.0797 341.612 63.1827V56.2718C341.612 55.3544 340.899 54.6409 339.981 54.6409H338.35C337.433 54.6409 336.72 55.3748 336.72 56.2718V63.1827C336.72 64.0797 337.453 64.8136 338.35 64.8136H339.981ZM334.681 63.1827V56.2718C334.681 54.2332 336.332 52.6023 338.35 52.6023H339.981C342.02 52.6023 343.651 54.2332 343.651 56.2718V63.1827C343.651 65.2009 342.02 66.8726 339.981 66.8726H338.35C336.332 66.8726 334.681 65.2009 334.681 63.1827Z" fill="#252829"/>
<path d="M416.687 58.8164C419.263 56.2469 419.424 53.1903 419.343 51.8274C419.33 51.6197 419.241 51.4239 419.094 51.2767C418.946 51.1295 418.75 51.041 418.542 51.0276C417.175 50.9473 414.113 51.1058 411.535 53.6774L404.761 60.4341L409.913 65.5731L416.687 58.8164Z" stroke="black" stroke-width="1.5" stroke-linecap="round" stroke-linejoin="round"/>
<path d="M410.774 54.4375H404.157C403.929 54.4376 403.711 54.5277 403.55 54.688L399.863 58.3656C399.751 58.4781 399.672 58.6197 399.635 58.7744C399.599 58.9292 399.606 59.091 399.656 59.2418C399.707 59.3926 399.798 59.5264 399.921 59.6282C400.043 59.7301 400.192 59.7959 400.349 59.8185L404.763 60.433" stroke="black" stroke-width="1.5" stroke-linecap="round" stroke-linejoin="round"/>
<path d="M415.925 59.5776V66.178C415.925 66.4049 415.834 66.6224 415.674 66.7829L411.987 70.4605C411.874 70.5728 411.732 70.6516 411.577 70.688C411.422 70.7244 411.259 70.717 411.108 70.6666C410.957 70.6163 410.823 70.525 410.721 70.4029C410.619 70.2809 410.553 70.1329 410.53 69.9755L409.914 65.5731" stroke="black" stroke-width="1.5" stroke-linecap="round" stroke-linejoin="round"/>
<path d="M406.326 66.8394C405.911 67.7484 404.511 69.8565 400.47 69.8565C400.47 65.8256 402.583 64.4295 403.494 64.0151" stroke="black" stroke-width="1.5" stroke-linecap="round" stroke-linejoin="round"/>
<rect opacity="0.3" x="375.779" y="96.6689" width="67.8796" height="67.6504" rx="18.513" fill="#B1C5CE"/>
<g clip-path="url(#clip1_6479_47598)">
<path d="M402.422 144.384L410.775 127.425L419.128 144.384" stroke="#B1C5CE" stroke-width="1.512" stroke-linecap="round" stroke-linejoin="round"/>
<path d="M406.209 128.27C406.088 127.591 406.115 126.893 406.289 126.227C406.462 125.56 406.778 124.94 407.214 124.41C407.649 123.881 408.194 123.455 408.809 123.163C409.425 122.871 410.096 122.719 410.775 122.719C411.455 122.719 412.126 122.871 412.741 123.163C413.357 123.455 413.902 123.881 414.337 124.41C414.773 124.94 415.088 125.56 415.262 126.227C415.436 126.893 415.463 127.591 415.342 128.27" stroke="#B1C5CE" stroke-width="1.512" stroke-linecap="round" stroke-linejoin="round"/>
<path d="M404.108 132.534C403.172 131.275 402.6 129.776 402.457 128.206C402.314 126.636 402.606 125.056 403.298 123.645C403.991 122.233 405.057 121.046 406.378 120.216C407.699 119.386 409.222 118.946 410.775 118.946C412.328 118.946 413.851 119.386 415.172 120.216C416.493 121.046 417.559 122.233 418.252 123.645C418.944 125.056 419.236 126.636 419.093 128.206C418.95 129.776 418.378 131.275 417.442 132.534" stroke="#B1C5CE" stroke-width="1.512" stroke-linecap="round" stroke-linejoin="round"/>
<path d="M404.278 140.615H417.272" stroke="#B1C5CE" stroke-width="1.512" stroke-linecap="round" stroke-linejoin="round"/>
<path d="M406.135 136.847H415.416" stroke="#B1C5CE" stroke-width="1.512" stroke-linecap="round" stroke-linejoin="round"/>
</g>
<path d="M57.2524 274.455C57.2524 272.346 55.6123 270.706 53.5036 270.706H52.5664C50.4577 270.706 48.8176 272.393 48.8176 274.455V278.391H55.1437V283.077H48.8176V284.951H55.1437V289.637H48.8176V290.34C48.8176 292.402 50.5046 294.089 52.5664 294.089H53.5036C55.5654 294.089 57.2524 292.402 57.2524 290.34V289.872H61.9383V290.34C61.9383 294.979 58.1895 298.822 53.5036 298.822H52.5664C47.9273 298.822 44.1316 294.979 44.1316 290.34V289.637H41.3201V284.951H44.1316V283.077H41.3201V278.391H44.1316V274.455C44.1316 269.769 47.9273 266.02 52.5664 266.02H53.5036C58.1895 266.02 61.9383 269.769 61.9383 274.455V274.923H57.2524V274.455ZM107.824 294.136V298.822H87.2059V294.136H95.1721V271.456L87.2059 276.142V270.706L95.1721 266.02H99.858V294.136H107.824ZM121.395 268.832H126.081V280.547H130.767V285.232H126.081V298.822H121.395V285.232H110.149V266.02H114.835V280.547H121.395V268.832ZM140.824 294.136H145.978V298.822H140.824V294.136ZM156.035 284.904V266.02H173.841V270.706H160.721V279.234L164.61 276.61H168.218C172.857 276.61 176.653 280.359 176.653 285.045V290.387C176.653 295.073 172.904 298.822 168.218 298.822H164.469C159.83 298.822 156.035 295.073 156.035 290.387V289.918H160.721V290.387C160.721 292.449 162.408 294.136 164.469 294.136H168.218C170.327 294.136 171.967 292.496 171.967 290.387V285.045C171.967 282.983 170.28 281.296 168.218 281.296H166.063L160.721 284.904H156.035ZM191.161 294.089C191.958 294.089 192.661 293.855 193.27 293.433L183.664 277.782V290.34C183.664 292.402 185.351 294.089 187.412 294.089H191.161ZM178.978 290.34V274.455C178.978 269.769 182.773 266.02 187.412 266.02H191.161C195.847 266.02 199.596 269.769 199.596 274.455V290.34C199.596 294.979 195.847 298.822 191.161 298.822H187.412C182.773 298.822 178.978 294.979 178.978 290.34ZM185.257 271.362L194.91 287.06V274.455C194.91 272.346 193.27 270.706 191.161 270.706H187.412C186.616 270.706 185.866 270.94 185.257 271.362Z" fill="#252829"/>
<path d="M213.228 303.04L218.338 287.343H220.135L215.025 303.04H213.228ZM234.907 290.517C235.883 290.517 236.68 290.837 237.296 291.476C237.912 292.104 238.221 293.116 238.221 294.511V299.552H236.337V294.529C236.337 293.75 236.18 293.157 235.866 292.75C235.552 292.343 235.087 292.139 234.471 292.139C233.82 292.139 233.302 292.372 232.918 292.837C232.546 293.29 232.36 293.918 232.36 294.72V299.552H230.459V294.529C230.459 293.738 230.296 293.145 229.971 292.75C229.657 292.343 229.192 292.139 228.576 292.139C227.936 292.139 227.424 292.378 227.041 292.854C226.669 293.331 226.483 293.971 226.483 294.773V299.552H224.599V290.622H226.238L226.448 291.79C227.087 290.953 227.959 290.529 229.064 290.517C229.692 290.517 230.244 290.651 230.721 290.918C231.198 291.186 231.564 291.593 231.82 292.139C232.134 291.628 232.546 291.232 233.058 290.953C233.57 290.662 234.186 290.517 234.907 290.517ZM243.975 299.656C243.079 299.656 242.283 299.47 241.585 299.098C240.899 298.715 240.364 298.18 239.981 297.494C239.608 296.796 239.422 295.994 239.422 295.087C239.422 294.191 239.608 293.401 239.981 292.715C240.364 292.017 240.899 291.476 241.585 291.093C242.283 290.709 243.079 290.517 243.975 290.517C244.87 290.517 245.661 290.709 246.347 291.093C247.044 291.476 247.579 292.017 247.951 292.715C248.335 293.401 248.527 294.191 248.527 295.087C248.527 295.994 248.335 296.796 247.951 297.494C247.579 298.18 247.044 298.715 246.347 299.098C245.661 299.47 244.87 299.656 243.975 299.656ZM243.975 298.052C244.765 298.052 245.399 297.779 245.876 297.232C246.364 296.674 246.608 295.959 246.608 295.087C246.608 294.215 246.364 293.505 245.876 292.959C245.399 292.401 244.765 292.122 243.975 292.122C243.184 292.122 242.55 292.401 242.074 292.959C241.597 293.505 241.358 294.215 241.358 295.087C241.358 295.959 241.597 296.674 242.074 297.232C242.55 297.779 243.184 298.052 243.975 298.052ZM254.576 290.517C255.634 290.517 256.495 290.843 257.158 291.494C257.832 292.145 258.169 293.191 258.169 294.633V299.552H256.268V294.738C256.268 293.889 256.088 293.244 255.727 292.802C255.367 292.36 254.838 292.139 254.14 292.139C253.396 292.139 252.809 292.401 252.379 292.924C251.96 293.436 251.751 294.145 251.751 295.052V299.552H249.867V290.622H251.507L251.716 291.79C252.39 290.942 253.344 290.517 254.576 290.517ZM260.283 292.279H258.731V290.622H260.283V288.128H262.185V290.622H264.33V292.279H262.185V296.936C262.185 297.284 262.254 297.534 262.394 297.686C262.533 297.825 262.772 297.895 263.109 297.895H264.539V299.552H262.725C261.876 299.552 261.254 299.354 260.859 298.959C260.475 298.563 260.283 297.953 260.283 297.127V292.279ZM270.067 290.517C271.137 290.517 272.003 290.843 272.666 291.494C273.341 292.145 273.678 293.191 273.678 294.633V299.552H271.794V294.738C271.794 293.889 271.608 293.244 271.236 292.802C270.876 292.36 270.346 292.139 269.649 292.139C268.905 292.139 268.317 292.401 267.887 292.924C267.469 293.436 267.259 294.139 267.259 295.034V299.552H265.376V287.343H267.259V291.912C267.934 290.982 268.87 290.517 270.067 290.517Z" fill="#5F6F77"/>
<rect opacity="0.65" x="282.975" y="143.836" width="41.2831" height="32.7095" rx="5.6628" fill="#252829"/>
<g opacity="0.4">
<path d="M306.723 179.97L306.723 173.176C306.723 171.44 308.13 170.032 309.866 170.032V170.032C311.602 170.032 313.01 168.625 313.01 166.889L313.01 154.369C313.01 152.633 311.602 151.226 309.866 151.226V151.226C308.13 151.226 306.723 149.818 306.723 148.082L306.723 137.767" stroke="#92A6B0" stroke-width="1.13256"/>
<path d="M312.547 164.319L325.394 164.319" stroke="#92A6B0" stroke-width="1.13256"/>
<path d="M313.01 156.363L325.393 156.346" stroke="#92A6B0" stroke-width="1.13256"/>
</g>
<g opacity="0.4">
<path d="M301.144 179.97L301.144 173.282C301.144 171.487 299.689 170.032 297.894 170.032V170.032C296.1 170.032 294.645 168.577 294.645 166.783L294.645 154.476C294.645 152.681 296.1 151.226 297.894 151.226V151.226C299.689 151.226 301.144 149.771 301.144 147.976L301.144 137.767" stroke="#92A6B0" stroke-width="1.13256"/>
<path d="M295.125 164.32L281.842 164.32" stroke="#92A6B0" stroke-width="1.13256"/>
<path d="M294.645 156.363L281.842 156.345" stroke="#92A6B0" stroke-width="1.13256"/>
</g>
<path opacity="0.5" d="M259.257 158.257V146.931C259.257 145.518 259.843 144.169 260.876 143.205L270.153 134.549C271.096 133.668 272.339 133.178 273.63 133.178H282.145M259.257 169.838V181.916C259.257 184.731 261.539 187.013 264.353 187.013H282.677M295.358 187.013H327.005C329.819 187.013 332.101 184.731 332.101 181.916V181.141M332.101 138.988V138.275C332.101 135.46 329.819 133.178 327.005 133.178H294.598" stroke="#C7D3D9" stroke-width="2.71814" stroke-linecap="round"/>
</g>
<defs>
<clipPath id="clip0_6479_47598">
<rect width="447" height="376" fill="white" transform="translate(0.165039 0.726074)"/>
</clipPath>
<clipPath id="clip1_6479_47598">
<rect width="29.7" height="30.15" fill="white" transform="translate(395.924 117.061)"/>
</clipPath>
</defs>
</svg>
