<svg width="501" height="369" viewBox="0 0 501 369" fill="none" xmlns="http://www.w3.org/2000/svg">
<rect x="244" width="256.274" height="192.38" rx="25.5" fill="#92A6B0"/>
<path d="M273.643 163.97C274.369 163.97 274.963 163.376 274.963 162.65V157.057C274.963 156.314 274.386 155.737 273.643 155.737H272.323C271.581 155.737 271.003 156.331 271.003 157.057V162.65C271.003 163.376 271.597 163.97 272.323 163.97H273.643ZM269.353 162.65V157.057C269.353 155.407 270.69 154.087 272.323 154.087H273.643C275.293 154.087 276.613 155.407 276.613 157.057V162.65C276.613 164.284 275.293 165.637 273.643 165.637H272.323C270.69 165.637 269.353 164.284 269.353 162.65ZM283.537 154.087H285.187V165.637H282.794L279.577 156.859V165.637H277.927V154.087H280.319L283.537 162.865V154.087ZM289.635 159.416H293.76V162.65C293.76 164.284 292.44 165.637 290.79 165.637H289.47C287.837 165.637 286.5 164.284 286.5 162.65V157.057C286.5 155.407 287.837 154.087 289.47 154.087H290.79C292.44 154.087 293.76 155.407 293.76 157.057V157.964H292.11V157.057C292.11 156.314 291.533 155.737 290.79 155.737H289.47C288.728 155.737 288.15 156.331 288.15 157.057V162.65C288.15 163.376 288.744 163.97 289.47 163.97H290.79C291.516 163.97 292.11 163.376 292.11 162.65V161.066H289.635V159.416ZM299.364 163.97C300.09 163.97 300.684 163.376 300.684 162.65V157.057C300.684 156.314 300.106 155.737 299.364 155.737H298.044C297.301 155.737 296.724 156.331 296.724 157.057V162.65C296.724 163.376 297.318 163.97 298.044 163.97H299.364ZM295.074 162.65V157.057C295.074 155.407 296.41 154.087 298.044 154.087H299.364C301.014 154.087 302.334 155.407 302.334 157.057V162.65C302.334 164.284 301.014 165.637 299.364 165.637H298.044C296.41 165.637 295.074 164.284 295.074 162.65ZM303.647 154.087H310.907V155.737H308.102V163.987H310.907V165.637H303.647V163.987H306.452V155.737H303.647V154.087ZM317.831 154.087H319.481V165.637H317.088L313.871 156.859V165.637H312.221V154.087H314.613L317.831 162.865V154.087ZM323.93 159.416H328.055V162.65C328.055 164.284 326.735 165.637 325.085 165.637H323.765C322.131 165.637 320.795 164.284 320.795 162.65V157.057C320.795 155.407 322.131 154.087 323.765 154.087H325.085C326.735 154.087 328.055 155.407 328.055 157.057V157.964H326.405V157.057C326.405 156.314 325.827 155.737 325.085 155.737H323.765C323.022 155.737 322.445 156.331 322.445 157.057V162.65C322.445 163.376 323.039 163.97 323.765 163.97H325.085C325.811 163.97 326.405 163.376 326.405 162.65V161.066H323.93V159.416ZM344.872 157.717C344.872 158.476 344.591 159.185 344.113 159.697C344.773 160.241 345.202 161.066 345.202 162.007V162.667C345.202 164.317 343.882 165.637 342.232 165.637H337.942V154.087H341.902C343.552 154.087 344.872 155.407 344.872 157.057V157.717ZM339.592 163.987H342.232C342.974 163.987 343.552 163.409 343.552 162.667V162.007C343.552 161.264 342.974 160.687 342.232 160.687H339.592V163.987ZM339.592 159.037H341.902C342.644 159.037 343.222 158.459 343.222 157.717V157.057C343.222 156.314 342.644 155.737 341.902 155.737H339.592V159.037ZM346.515 154.087H353.775V155.737H350.97V163.987H353.775V165.637H346.515V163.987H349.32V155.737H346.515V154.087ZM356.739 154.087V163.987H362.349V165.637H355.089V154.087H356.739ZM365.312 154.087V163.987H370.922V165.637H363.662V154.087H365.312ZM372.236 154.087H379.496V155.737H376.691V163.987H379.496V165.637H372.236V163.987H375.041V155.737H372.236V154.087ZM386.419 154.087H388.069V165.637H385.677L382.459 156.859V165.637H380.809V154.087H383.202L386.419 162.865V154.087ZM392.518 159.416H396.643V162.65C396.643 164.284 395.323 165.637 393.673 165.637H392.353C390.719 165.637 389.383 164.284 389.383 162.65V157.057C389.383 155.407 390.719 154.087 392.353 154.087H393.673C395.323 154.087 396.643 155.407 396.643 157.057V157.964H394.993V157.057C394.993 156.314 394.415 155.737 393.673 155.737H392.353C391.61 155.737 391.033 156.331 391.033 157.057V162.65C391.033 163.376 391.627 163.97 392.353 163.97H393.673C394.399 163.97 394.993 163.376 394.993 162.65V161.066H392.518V159.416Z" fill="#5F6F77"/>
<g clip-path="url(#clip0_6579_18580)">
<path d="M277.958 49.6835H274.358C274.119 49.6835 273.89 49.5958 273.722 49.4397C273.553 49.2836 273.458 49.072 273.458 48.8512V44.6901C273.458 44.4694 273.553 44.2577 273.722 44.1017C273.89 43.9456 274.119 43.8579 274.358 43.8579H277.958" stroke="black" stroke-width="1.8" stroke-linecap="round" stroke-linejoin="round"/>
<path d="M285.158 44.6896H288.758L296.296 43.0865C296.573 43.0163 296.864 43.0061 297.146 43.0568C297.428 43.1074 297.693 43.2175 297.922 43.3786C298.15 43.5396 298.336 43.7472 298.463 43.9852C298.591 44.2232 298.658 44.4853 298.658 44.751C298.658 45.0718 298.562 45.3863 298.379 45.6592C298.197 45.932 297.936 46.1525 297.625 46.2958L293.258 48.0185L286.058 49.6829H277.958V43.8574L280.771 41.2567C281.022 41.025 281.32 40.8415 281.648 40.7165C281.977 40.5916 282.328 40.5277 282.683 40.5285H288.308C288.905 40.5285 289.477 40.7477 289.899 41.1379C290.321 41.528 290.558 42.0572 290.558 42.609C290.558 43.1608 290.321 43.69 289.899 44.0802C289.477 44.4704 288.905 44.6896 288.308 44.6896H285.158Z" stroke="black" stroke-width="1.8" stroke-linecap="round" stroke-linejoin="round"/>
<g opacity="0.2">
<path d="M295.507 39.6967C297.247 39.6967 298.657 38.3926 298.657 36.7839C298.657 35.1752 297.247 33.8711 295.507 33.8711C293.768 33.8711 292.357 35.1752 292.357 36.7839C292.357 38.3926 293.768 39.6967 295.507 39.6967Z" stroke="black" stroke-width="1.8" stroke-linecap="round" stroke-linejoin="round"/>
<path d="M292.357 36.9191C291.746 37.1865 291.058 37.2648 290.394 37.1425C289.731 37.0203 289.128 36.7038 288.674 36.2401C288.221 35.7763 287.94 35.1898 287.875 34.5674C287.81 33.9449 287.963 33.3196 288.312 32.7838C288.66 32.248 289.186 31.8303 289.812 31.5923C290.437 31.3544 291.129 31.3089 291.784 31.4625C292.44 31.6162 293.025 31.9609 293.452 32.4456C293.879 32.9303 294.126 33.5294 294.157 34.1541" stroke="black" stroke-width="1.8" stroke-linecap="round" stroke-linejoin="round"/>
</g>
</g>
<path d="M284.051 132.433V135.533H270.411V132.433H275.681V117.429L270.411 120.529V116.933L275.681 113.833H278.781V132.433H284.051ZM300.159 132.433V135.533H286.519V132.433H291.789V117.429L286.519 120.529V116.933L291.789 113.833H294.889V132.433H300.159ZM316.266 132.433V135.533H302.626V128.372L313.166 122.451V119.413C313.166 118.018 312.081 116.933 310.686 116.933H308.206C306.842 116.933 305.726 118.049 305.726 119.413V120.498H302.626V119.413C302.626 116.313 305.137 113.833 308.206 113.833H310.686C313.786 113.833 316.266 116.313 316.266 119.413V124.28L305.726 130.201V132.433H316.266ZM348.482 120.653C348.482 122.234 347.831 123.66 346.777 124.683C347.831 125.706 348.482 127.132 348.482 128.713V129.953C348.482 133.053 346.002 135.533 342.902 135.533H340.422C337.353 135.533 334.842 133.053 334.842 129.953V128.868H337.942V129.953C337.942 131.317 339.058 132.433 340.422 132.433H342.902C344.297 132.433 345.382 131.348 345.382 129.953V128.713C345.382 127.318 344.297 126.233 342.902 126.233H340.732V123.133H342.902C344.297 123.133 345.382 122.048 345.382 120.653V119.413C345.382 118.018 344.297 116.933 342.902 116.933H340.422C339.058 116.933 337.942 118.049 337.942 119.413V120.498H334.842V119.413C334.842 116.313 337.353 113.833 340.422 113.833H342.902C346.002 113.833 348.482 116.313 348.482 119.413V120.653ZM350.95 126.326V113.833H362.73V116.933H354.05V122.575L356.623 120.839H359.01C362.079 120.839 364.59 123.319 364.59 126.419V129.953C364.59 133.053 362.11 135.533 359.01 135.533H356.53C353.461 135.533 350.95 133.053 350.95 129.953V129.643H354.05V129.953C354.05 131.317 355.166 132.433 356.53 132.433H359.01C360.405 132.433 361.49 131.348 361.49 129.953V126.419C361.49 125.055 360.374 123.939 359.01 123.939H357.584L354.05 126.326H350.95ZM367.058 126.326V113.833H378.838V116.933H370.158V122.575L372.731 120.839H375.118C378.187 120.839 380.698 123.319 380.698 126.419V129.953C380.698 133.053 378.218 135.533 375.118 135.533H372.638C369.569 135.533 367.058 133.053 367.058 129.953V129.643H370.158V129.953C370.158 131.317 371.274 132.433 372.638 132.433H375.118C376.513 132.433 377.598 131.348 377.598 129.953V126.419C377.598 125.055 376.482 123.939 375.118 123.939H373.692L370.158 126.326H367.058Z" fill="#313334"/>
<rect x="244" y="195.38" width="253.928" height="116.593" rx="25" fill="#92A6B0"/>
<path opacity="0.4" d="M273.018 283.618L469.784 283.618" stroke="#252829" stroke-width="3" stroke-linecap="round"/>
<path d="M273.018 283.618L391.978 283.618" stroke="#9BF7FF" stroke-width="3" stroke-linecap="round"/>
<path d="M420.091 237.939C420.091 239.22 421.14 240.268 422.421 240.268H424.75C426.061 240.268 427.08 239.249 427.08 237.939V235.493C427.08 234.211 426.032 233.163 424.75 233.163H423.411L420.091 235.405V237.939ZM417.179 237.939V228.038C417.179 225.126 419.509 222.796 422.421 222.796H424.75C427.662 222.796 429.992 225.126 429.992 228.038V228.912H427.08V228.038C427.08 226.728 426.061 225.708 424.75 225.708H422.421C421.11 225.708 420.091 226.728 420.091 228.038V231.882L422.508 230.251H424.75C427.633 230.251 429.992 232.581 429.992 235.493V237.939C429.992 240.851 427.662 243.18 424.75 243.18H422.421C419.538 243.18 417.179 240.851 417.179 237.939ZM445.123 229.203C445.123 230.688 444.512 232.027 443.521 232.988C444.512 233.949 445.123 235.289 445.123 236.774V237.939C445.123 240.851 442.793 243.18 439.881 243.18H437.552C434.669 243.18 432.31 240.851 432.31 237.939V236.92H435.222V237.939C435.222 239.22 436.271 240.268 437.552 240.268H439.881C441.192 240.268 442.211 239.249 442.211 237.939V236.774C442.211 235.464 441.192 234.444 439.881 234.444H437.843V231.532H439.881C441.192 231.532 442.211 230.513 442.211 229.203V228.038C442.211 226.728 441.192 225.708 439.881 225.708H437.552C436.271 225.708 435.222 226.757 435.222 228.038V229.057H432.31V228.038C432.31 225.126 434.669 222.796 437.552 222.796H439.881C442.793 222.796 445.123 225.126 445.123 228.038V229.203ZM450.353 243.18H447.441V238.521L457.342 226.407V222.796H460.254V227.456L450.353 239.57V243.18ZM445.694 226.669C445.694 224.514 447.412 222.796 449.567 222.796C451.693 222.796 453.411 224.514 453.411 226.669C453.411 228.824 451.693 230.542 449.567 230.542C447.412 230.542 445.694 228.824 445.694 226.669ZM448.606 226.669C448.606 227.194 449.043 227.63 449.567 227.63C450.091 227.63 450.499 227.194 450.499 226.669C450.499 226.145 450.091 225.708 449.567 225.708C449.043 225.708 448.606 226.145 448.606 226.669ZM454.284 239.307C454.284 237.153 456.003 235.434 458.157 235.434C460.283 235.434 462.001 237.153 462.001 239.307C462.001 241.462 460.283 243.18 458.157 243.18C456.003 243.18 454.284 241.462 454.284 239.307ZM457.196 239.307C457.196 239.832 457.633 240.268 458.157 240.268C458.682 240.268 459.089 239.832 459.089 239.307C459.089 238.783 458.682 238.346 458.157 238.346C457.633 238.346 457.196 238.783 457.196 239.307Z" fill="#313334"/>
<path d="M273.846 223.63V228.25H277.806V223.63H279.456V235.18H277.806V229.9H273.846V235.18H272.196V223.63H273.846ZM288.03 223.63V225.28H282.42V228.3H287.37V229.95H282.42V233.53H288.03V235.18H280.77V223.63H288.03ZM290.993 235.18H289.343V231.385L292.148 223.63H293.798L296.603 231.385V235.18H294.953V232.507H290.993V235.18ZM291.29 230.857H294.656L292.99 226.237H292.957L291.29 230.857ZM305.177 227.59C305.177 229.24 303.857 230.56 302.207 230.56H299.567V235.18H297.917V223.63H302.207C303.857 223.63 305.177 224.95 305.177 226.6V227.59ZM299.567 228.91H302.207C302.949 228.91 303.527 228.333 303.527 227.59V226.6C303.527 225.858 302.949 225.28 302.207 225.28H299.567V228.91ZM275.38 250.527L273.846 247.26V255.18H272.196V243.63H273.846L275.826 247.937L277.806 243.63H279.456V255.18H277.806V247.26L276.271 250.527H275.38ZM288.03 243.63V245.28H282.42V248.3H287.37V249.95H282.42V253.53H288.03V255.18H280.77V243.63H288.03ZM292.528 250.527L290.993 247.26V255.18H289.343V243.63H290.993L292.973 247.937L294.953 243.63H296.603V255.18H294.953V247.26L293.419 250.527H292.528ZM302.207 253.514C302.933 253.514 303.527 252.92 303.527 252.194V246.6C303.527 245.858 302.949 245.28 302.207 245.28H300.887C300.144 245.28 299.567 245.874 299.567 246.6V252.194C299.567 252.92 300.161 253.514 300.887 253.514H302.207ZM297.917 252.194V246.6C297.917 244.95 299.253 243.63 300.887 243.63H302.207C303.857 243.63 305.177 244.95 305.177 246.6V252.194C305.177 253.827 303.857 255.18 302.207 255.18H300.887C299.253 255.18 297.917 253.827 297.917 252.194ZM313.75 255.18H311.935L309.84 250.56H308.14V255.18H306.49V243.63H310.78C312.43 243.63 313.75 244.95 313.75 246.6V247.59C313.75 248.96 312.843 250.098 311.589 250.445L313.75 255.18ZM308.14 248.91H310.78C311.523 248.91 312.1 248.333 312.1 247.59V246.6C312.1 245.858 311.523 245.28 310.78 245.28H308.14V248.91ZM317.869 255.18V251.072L315.064 247.59V243.63H316.714V246.996L318.661 249.422H318.694L320.674 246.831V243.63H322.324V247.392L319.519 251.072V255.18H317.869Z" fill="#5F6F77"/>
<rect x="390.543" y="25.2749" width="81" height="27" rx="13.5" fill="#9BF7FF"/>
<path d="M405.173 43.1955V34.3543M405.173 34.3543L400.704 38.823M405.173 34.3543L409.641 38.823" stroke="#252829" stroke-width="1.456"/>
<path d="M435.504 43.792V45.7749H426.78V41.1944L433.522 37.4071V35.4638C433.522 34.5715 432.828 33.8775 431.935 33.8775H430.349C429.476 33.8775 428.763 34.5914 428.763 35.4638V36.1578H426.78V35.4638C426.78 33.4809 428.386 31.8946 430.349 31.8946H431.935C433.918 31.8946 435.504 33.4809 435.504 35.4638V38.577L428.763 42.3643V43.792H435.504ZM437.579 43.792H439.76V45.7749H437.579V43.792ZM450.559 43.792V45.7749H441.834V41.1944L448.576 37.4071V35.4638C448.576 34.5715 447.882 33.8775 446.99 33.8775H445.403C444.531 33.8775 443.817 34.5914 443.817 35.4638V36.1578H441.834V35.4638C441.834 33.4809 443.44 31.8946 445.403 31.8946H446.99C448.973 31.8946 450.559 33.4809 450.559 35.4638V38.577L443.817 42.3643V43.792H450.559Z" fill="#252829"/>
<path d="M455.763 45.7749H453.78V42.6023L460.522 34.3534V31.8946H462.504V35.0673L455.763 43.3161V45.7749ZM452.59 34.5319C452.59 33.0645 453.76 31.8946 455.227 31.8946C456.675 31.8946 457.845 33.0645 457.845 34.5319C457.845 35.9992 456.675 37.1691 455.227 37.1691C453.76 37.1691 452.59 35.9992 452.59 34.5319ZM454.573 34.5319C454.573 34.8888 454.87 35.1862 455.227 35.1862C455.584 35.1862 455.862 34.8888 455.862 34.5319C455.862 34.175 455.584 33.8775 455.227 33.8775C454.87 33.8775 454.573 34.175 454.573 34.5319ZM458.439 43.1376C458.439 41.6703 459.609 40.5004 461.077 40.5004C462.524 40.5004 463.694 41.6703 463.694 43.1376C463.694 44.605 462.524 45.7749 461.077 45.7749C459.609 45.7749 458.439 44.605 458.439 43.1376ZM460.422 43.1376C460.422 43.4946 460.72 43.792 461.077 43.792C461.434 43.792 461.711 43.4946 461.711 43.1376C461.711 42.7807 461.434 42.4833 461.077 42.4833C460.72 42.4833 460.422 42.7807 460.422 43.1376Z" fill="#252829"/>
<rect y="49.6039" width="240" height="286.741" rx="25.5" fill="#92A6B0"/>
<rect x="123.1" y="75.1542" width="81" height="27" rx="13.5" fill="#B5FDD0"/>
<path d="M137.729 93.0748V84.2336M137.729 84.2336L133.261 88.7023M137.729 84.2336L142.198 88.7023" stroke="#252829" stroke-width="1.456"/>
<path d="M168.061 86.1363C168.061 87.1476 167.645 88.0597 166.97 88.7141C167.645 89.3684 168.061 90.2806 168.061 91.2918V92.085C168.061 94.0679 166.475 95.6542 164.492 95.6542H162.906C160.942 95.6542 159.336 94.0679 159.336 92.085V91.391H161.319V92.085C161.319 92.9575 162.033 93.6713 162.906 93.6713H164.492C165.384 93.6713 166.078 92.9773 166.078 92.085V91.2918C166.078 90.3995 165.384 89.7055 164.492 89.7055H163.104V87.7226H164.492C165.384 87.7226 166.078 87.0286 166.078 86.1363V85.3431C166.078 84.4508 165.384 83.7568 164.492 83.7568H162.906C162.033 83.7568 161.319 84.4707 161.319 85.3431V86.0372H159.336V85.3431C159.336 83.3602 160.942 81.7739 162.906 81.7739H164.492C166.475 81.7739 168.061 83.3602 168.061 85.3431V86.1363ZM170.135 93.6713H172.317V95.6542H170.135V93.6713ZM183.116 93.6713V95.6542H174.391V91.0737L181.133 87.2864V85.3431C181.133 84.4508 180.439 83.7568 179.546 83.7568H177.96C177.088 83.7568 176.374 84.4707 176.374 85.3431V86.0372H174.391V85.3431C174.391 83.3602 175.997 81.7739 177.96 81.7739H179.546C181.529 81.7739 183.116 83.3602 183.116 85.3431V88.4563L176.374 92.2436V93.6713H183.116Z" fill="#252829"/>
<path d="M188.319 95.6542H186.336V92.4816L193.078 84.2327V81.7739H195.061V84.9466L188.319 93.1954V95.6542ZM185.147 84.4112C185.147 82.9438 186.316 81.7739 187.784 81.7739C189.231 81.7739 190.401 82.9438 190.401 84.4112C190.401 85.8785 189.231 87.0484 187.784 87.0484C186.316 87.0484 185.147 85.8785 185.147 84.4112ZM187.129 84.4112C187.129 84.7681 187.427 85.0655 187.784 85.0655C188.141 85.0655 188.418 84.7681 188.418 84.4112C188.418 84.0543 188.141 83.7568 187.784 83.7568C187.427 83.7568 187.129 84.0543 187.129 84.4112ZM190.996 93.017C190.996 91.5496 192.166 90.3797 193.633 90.3797C195.081 90.3797 196.251 91.5496 196.251 93.017C196.251 94.4843 195.081 95.6542 193.633 95.6542C192.166 95.6542 190.996 94.4843 190.996 93.017ZM192.979 93.017C192.979 93.3739 193.276 93.6713 193.633 93.6713C193.99 93.6713 194.268 93.3739 194.268 93.017C194.268 92.66 193.99 92.3626 193.633 92.3626C193.276 92.3626 192.979 92.66 192.979 93.017Z" fill="#252829"/>
<path d="M34.596 91.8976C37.5081 91.8976 39.8688 89.5369 39.8688 86.6249C39.8688 83.7128 37.5081 81.3521 34.596 81.3521C31.684 81.3521 29.3232 83.7128 29.3232 86.6249C29.3232 89.5369 31.684 91.8976 34.596 91.8976Z" stroke="#3B4144" stroke-width="1.95" stroke-linecap="round" stroke-linejoin="round"/>
<path d="M27.1152 95.9574C27.9255 94.7116 29.0341 93.6879 30.3404 92.9792C31.6467 92.2705 33.1094 91.8993 34.5955 91.8993C36.0817 91.8993 37.5443 92.2705 38.8506 92.9792C40.1569 93.6879 41.2655 94.7116 42.0758 95.9574" stroke="#3B4144" stroke-width="1.95" stroke-linecap="round" stroke-linejoin="round"/>
<path d="M43.5186 91.8993C45.0046 91.8985 46.4674 92.269 47.7738 92.9774C49.0802 93.6858 50.1888 94.7094 50.9988 95.9553" stroke="#5F6F77" stroke-width="1.95" stroke-linecap="round" stroke-linejoin="round"/>
<path d="M41.5615 81.7272C42.2828 81.4396 43.0587 81.3147 43.8338 81.3617C44.6089 81.4087 45.3641 81.6263 46.0453 81.9989C46.7266 82.3716 47.3172 82.8901 47.7748 83.5175C48.2324 84.1448 48.5458 84.8655 48.6926 85.628C48.8394 86.3905 48.816 87.1761 48.624 87.9285C48.432 88.6809 48.0762 89.3817 47.582 89.9806C47.0878 90.5796 46.4674 91.062 45.7651 91.3934C45.0629 91.7248 44.2961 91.897 43.5196 91.8976" stroke="#5F6F77" stroke-width="1.95" stroke-linecap="round" stroke-linejoin="round"/>
<g opacity="0.56">
<g clip-path="url(#clip1_6579_18580)">
<path opacity="0.3" d="M37.0778 194.044L-7.43822 224.621C-8.41584 225.292 -9 226.402 -9 227.588V380.427C-9 382.417 -7.38574 384.029 -5.39593 384.027L285.723 383.698C287.71 383.695 289.319 382.084 289.319 380.098V190.553C289.319 189.767 289.062 189.003 288.586 188.377L272.805 167.585C272.039 166.577 270.804 166.047 269.545 166.174C259.779 167.163 243.384 168.254 242.648 165.96C241.922 163.694 224.601 151.164 213.994 143.75C212.521 142.72 210.52 142.949 209.304 144.273L193.983 160.961C193.567 161.415 193.042 161.754 192.457 161.946L160.307 172.535C158.84 173.018 157.229 172.512 156.302 171.277L143.555 154.299C142.141 152.415 139.33 152.374 137.862 154.216L107.227 192.636C107.016 192.9 106.77 193.133 106.494 193.329L86.7005 207.365C85.768 208.026 84.5768 208.205 83.4911 207.847L40.2429 193.593C39.1752 193.241 38.0044 193.408 37.0778 194.044Z" fill="url(#paint0_linear_6579_18580)"/>
<path d="M-8.63672 226.517L37.8244 195.018C38.2865 194.705 38.8678 194.624 39.3979 194.799L84.3631 209.619C84.9059 209.798 85.5015 209.709 85.9678 209.378L106.711 194.669C106.848 194.571 106.972 194.454 107.077 194.322L139.32 153.884C140.055 152.963 141.46 152.984 142.167 153.925L157.086 173.798C157.549 174.415 158.355 174.668 159.088 174.427L192.912 163.287C193.204 163.19 193.466 163.021 193.675 162.794L210.373 144.605C210.981 143.943 211.979 143.827 212.717 144.34C223.141 151.592 241.901 165.087 242.657 167.448C243.418 169.823 260.972 168.569 270.568 167.557C271.197 167.49 271.814 167.756 272.196 168.26L289.328 190.829" stroke="#B5FDD0" stroke-width="2.45138" stroke-linecap="round"/>
</g>
</g>
<path d="M40.1981 271.402V274.502H26.5581V271.402H31.8281V256.398L26.5581 259.498V255.902L31.8281 252.802H34.9281V271.402H40.1981ZM56.306 271.402V274.502H42.666V267.341L53.206 261.42V258.382C53.206 256.987 52.121 255.902 50.726 255.902H48.246C46.882 255.902 45.766 257.018 45.766 258.382V259.467H42.666V258.382C42.666 255.282 45.177 252.802 48.246 252.802H50.726C53.826 252.802 56.306 255.282 56.306 258.382V263.249L45.766 269.17V271.402H56.306ZM66.8339 271.371C67.3609 271.371 67.8259 271.216 68.2289 270.937L61.8739 260.583V268.891C61.8739 270.255 62.9899 271.371 64.3539 271.371H66.8339ZM58.7739 268.891V258.382C58.7739 255.282 61.2849 252.802 64.3539 252.802H66.8339C69.9339 252.802 72.4139 255.282 72.4139 258.382V268.891C72.4139 271.96 69.9339 274.502 66.8339 274.502H64.3539C61.2849 274.502 58.7739 271.96 58.7739 268.891ZM62.9279 256.336L69.3139 266.721V258.382C69.3139 256.987 68.2289 255.902 66.8339 255.902H64.3539C63.8269 255.902 63.3309 256.057 62.9279 256.336ZM90.9897 265.295V252.802H102.77V255.902H94.0897V261.544L96.6627 259.808H99.0497C102.119 259.808 104.63 262.288 104.63 265.388V268.922C104.63 272.022 102.15 274.502 99.0497 274.502H96.5697C93.5007 274.502 90.9897 272.022 90.9897 268.922V268.612H94.0897V268.922C94.0897 270.286 95.2057 271.402 96.5697 271.402H99.0497C100.445 271.402 101.53 270.317 101.53 268.922V265.388C101.53 264.024 100.414 262.908 99.0497 262.908H97.6237L94.0897 265.295H90.9897ZM114.538 254.662H117.638V262.412H120.738V265.512H117.638V274.502H114.538V265.512H107.098V252.802H110.198V262.412H114.538V254.662ZM127.545 274.502H124.445V268.457L133.745 258.847V255.902H126.305V259.312H123.205V252.802H136.845V260.087L127.545 269.697V274.502Z" fill="#313334"/>
<path d="M25.3981 290.952H32.6581V292.602H29.8531V302.502H28.2031V292.602H25.3981V290.952ZM38.2617 300.835C38.9877 300.835 39.5817 300.241 39.5817 299.515V293.922C39.5817 293.179 39.0042 292.602 38.2617 292.602H36.9417C36.1992 292.602 35.6217 293.196 35.6217 293.922V299.515C35.6217 300.241 36.2157 300.835 36.9417 300.835H38.2617ZM33.9717 299.515V293.922C33.9717 292.272 35.3082 290.952 36.9417 290.952H38.2617C39.9117 290.952 41.2317 292.272 41.2317 293.922V299.515C41.2317 301.149 39.9117 302.502 38.2617 302.502H36.9417C35.3082 302.502 33.9717 301.149 33.9717 299.515ZM42.5452 290.952H49.8052V292.602H47.0002V302.502H45.3502V292.602H42.5452V290.952ZM52.7688 302.502H51.1188V298.707L53.9238 290.952H55.5738L58.3788 298.707V302.502H56.7288V299.829H52.7688V302.502ZM53.0658 298.179H56.4318L54.7653 293.559H54.7323L53.0658 298.179ZM61.3423 290.952V300.852H66.9523V302.502H59.6923V290.952H61.3423ZM84.0995 299.515C84.0995 301.149 82.763 302.502 81.1295 302.502H79.8095C78.1595 302.502 76.8395 301.149 76.8395 299.515V290.952H78.4895V299.515C78.4895 300.241 79.0835 300.835 79.8095 300.835H81.1295C81.8555 300.835 82.4495 300.241 82.4495 299.515V290.952H84.0995V299.515ZM85.413 298.773H87.063V299.433C87.063 300.208 87.7065 300.852 88.482 300.852H89.5875C90.429 300.852 91.023 300.324 91.023 299.598C91.023 297.321 85.578 296.826 85.578 293.691C85.578 292.074 86.8485 290.952 88.647 290.952H89.4225C91.122 290.952 92.508 292.321 92.508 294.021V294.516H90.858V294.021C90.858 293.229 90.2145 292.602 89.4225 292.602H88.647C87.756 292.602 87.228 293.014 87.228 293.691C87.228 295.44 92.673 296.116 92.673 299.598C92.673 301.248 91.3365 302.502 89.5875 302.502H88.482C86.7825 302.502 85.413 301.132 85.413 299.433V298.773ZM101.247 290.952V292.602H95.6366V295.621H100.587V297.271H95.6366V300.852H101.247V302.502H93.9866V290.952H101.247ZM109.82 302.502H108.005L105.91 297.882H104.21V302.502H102.56V290.952H106.85C108.5 290.952 109.82 292.272 109.82 293.922V294.912C109.82 296.281 108.913 297.42 107.659 297.766L109.82 302.502ZM104.21 296.232H106.85C107.593 296.232 108.17 295.654 108.17 294.912V293.922C108.17 293.179 107.593 292.602 106.85 292.602H104.21V296.232ZM111.134 298.773H112.784V299.433C112.784 300.208 113.427 300.852 114.203 300.852H115.308C116.15 300.852 116.744 300.324 116.744 299.598C116.744 297.321 111.299 296.826 111.299 293.691C111.299 292.074 112.569 290.952 114.368 290.952H115.143C116.843 290.952 118.229 292.321 118.229 294.021V294.516H116.579V294.021C116.579 293.229 115.935 292.602 115.143 292.602H114.368C113.477 292.602 112.949 293.014 112.949 293.691C112.949 295.44 118.394 296.116 118.394 299.598C118.394 301.248 117.057 302.502 115.308 302.502H114.203C112.503 302.502 111.134 301.132 111.134 299.433V298.773Z" fill="#5F6F77"/>
<defs>
<linearGradient id="paint0_linear_6579_18580" x1="149.783" y1="160.339" x2="149.783" y2="249" gradientUnits="userSpaceOnUse">
<stop stop-color="#B5FDD0"/>
<stop offset="1" stop-color="#B5FDD0" stop-opacity="0"/>
</linearGradient>
<clipPath id="clip0_6579_18580">
<rect width="28.8" height="26.6311" fill="white" transform="translate(272.559 28.0464)"/>
</clipPath>
<clipPath id="clip1_6579_18580">
<rect width="240" height="127.701" fill="white" transform="translate(0 141.963)"/>
</clipPath>
</defs>
</svg>
